<svg width="100" height="18" viewBox="0 0 100 18" fill="none" xmlns="http://www.w3.org/2000/svg">
<path d="M20.8134 5.16438C17.2094 5.16438 14.3933 7.9003 14.3933 11.5629C14.3933 15.2255 17.1382 17.938 20.8134 17.938C24.4886 17.938 27.2813 15.1786 27.2813 11.5395C27.2813 7.9237 24.5364 5.16438 20.8134 5.16438ZM20.8377 15.2984C18.7853 15.2984 17.2814 13.7044 17.2814 11.5638C17.2814 9.39882 18.761 7.80573 20.8134 7.80573C22.8901 7.80573 24.3932 9.42313 24.3932 11.5638C24.3932 13.7044 22.8901 15.2984 20.8377 15.2984ZM28.0684 7.94801H29.8586V17.7011H32.7224V5.40213H28.0684V7.94801ZM7.18608 7.80482C8.69003 7.80482 9.88326 8.73241 10.3363 10.1121H13.3676C12.8182 7.16272 10.384 5.16438 7.2104 5.16438C3.60634 5.16438 0.790283 7.9003 0.790283 11.5638C0.790283 15.2273 3.5352 17.9389 7.2104 17.9389C10.3128 17.9389 12.7948 15.9405 13.3441 12.9669H10.3363C9.90669 14.3465 8.71343 15.2984 7.20951 15.2984C5.1328 15.2984 3.67748 13.7044 3.67748 11.5638C3.67839 9.39882 5.11029 7.80482 7.18608 7.80482ZM82.4821 10.3741L80.382 10.0652C79.3799 9.92296 78.6638 9.58975 78.6638 8.80446C78.6638 7.94801 79.5951 7.52024 80.8594 7.52024C82.2437 7.52024 83.127 8.11463 83.3178 9.08993H86.0864C85.7757 6.61608 83.8664 5.16527 80.9314 5.16527C77.9001 5.16527 75.8956 6.71155 75.8956 8.89991C75.8956 10.9928 77.2084 12.2068 79.857 12.5868L81.9571 12.8957C82.9839 13.038 83.5565 13.4432 83.5565 14.2042C83.5565 15.1796 82.5544 15.5839 81.1701 15.5839C79.4752 15.5839 78.5207 14.8941 78.3775 13.8476H75.5613C75.8244 16.2503 77.7093 17.9389 81.1458 17.9389C84.2726 17.9389 86.3483 16.5115 86.3483 14.061C86.3483 11.8727 84.8453 10.7308 82.4821 10.3741ZM31.2905 0.335549C30.2404 0.335549 29.4526 1.09653 29.4526 2.14298C29.4526 3.18943 30.2396 3.95041 31.2905 3.95041C32.3405 3.95041 33.1286 3.18943 33.1286 2.14298C33.1286 1.09653 32.3405 0.335549 31.2905 0.335549ZM73.3181 9.61315C73.3181 6.94928 71.6954 5.16527 68.2587 5.16527C65.013 5.16527 63.1993 6.80701 62.8409 9.32857H65.6812C65.8244 8.35327 66.5881 7.54455 68.2111 7.54455C69.6673 7.54455 70.3831 8.18665 70.3831 8.97197C70.3831 9.99501 69.07 10.2562 67.4473 10.4228C65.2517 10.6605 62.5311 11.4215 62.5311 14.2763C62.5311 16.489 64.1781 17.9154 66.8035 17.9154C68.8557 17.9154 70.1444 17.059 70.7894 15.7028C70.8849 16.9158 71.7918 17.7011 73.057 17.7011H74.7276V15.1561H73.3189V9.61315H73.3181ZM70.5019 12.7057C70.5019 14.3474 69.07 15.5605 67.3274 15.5605C66.2533 15.5605 65.3464 15.1084 65.3464 14.1574C65.3464 12.9443 66.8024 12.6111 68.1391 12.4689C69.4278 12.35 70.1436 12.0645 70.5019 11.517V12.7057ZM55.2996 5.16438C53.7002 5.16438 52.3638 5.83079 51.4093 6.94839V0.216675H48.5455V17.7011H51.3614V16.0837C52.3159 17.249 53.6769 17.9389 55.2996 17.9389C58.736 17.9389 61.3379 15.2273 61.3379 11.5638C61.3379 7.9003 58.6884 5.16438 55.2996 5.16438ZM54.8701 15.2984C52.8177 15.2984 51.3138 13.7044 51.3138 11.5638C51.3138 9.42313 52.8412 7.80573 54.8934 7.80573C56.9702 7.80573 58.4254 9.39973 58.4254 11.5638C58.4254 13.7044 56.9223 15.2984 54.8701 15.2984ZM41.6956 5.16438C39.8342 5.16438 38.6166 5.92535 37.9008 6.99611V5.40213H35.0603V17.7002H37.9241V11.0162C37.9241 9.13675 39.1173 7.80482 40.8834 7.80482C42.5305 7.80482 43.5562 8.97017 43.5562 10.6596V17.7011H46.4199V10.4462C46.4211 7.35274 44.8225 5.16438 41.6956 5.16438ZM100 11.1594C100 7.63912 97.4225 5.16527 93.9617 5.16527C90.2865 5.16527 87.5894 7.92461 87.5894 11.5638C87.5894 15.3939 90.4773 17.9389 94.0096 17.9389C96.993 17.9389 99.3318 16.1783 99.928 13.681H96.9443C96.5148 14.7752 95.4647 15.3939 94.0564 15.3939C92.2183 15.3939 90.834 14.252 90.5241 12.2536H99.9991V11.1594H100ZM90.6917 10.2075C91.1458 8.49466 92.4342 7.66254 93.914 7.66254C95.5367 7.66254 96.7778 8.59011 97.0642 10.2075H90.6917Z" fill="#0052FF"/>
</svg>
