<svg width="25" height="25" viewBox="0 0 25 25" fill="none" xmlns="http://www.w3.org/2000/svg">
<circle cx="12.5" cy="12.5" r="12.5" fill="#7DC1FF"/>
<path d="M11.4838 15.7895C14.2148 15.7895 15.7087 13.5109 15.7087 11.5384C15.7087 11.4746 15.7087 11.4099 15.706 11.3462C15.9969 11.1342 16.2479 10.8717 16.4474 10.571C16.1757 10.6916 15.8877 10.7711 15.593 10.8069C15.9035 10.62 16.136 10.326 16.2474 9.9794C15.9557 10.1534 15.6364 10.2756 15.3035 10.3406C15.0797 10.1006 14.7835 9.94156 14.4609 9.8882C14.1382 9.83484 13.8071 9.89009 13.5188 10.0454C13.2306 10.2007 13.0012 10.4474 12.8662 10.7473C12.7313 11.0472 12.6983 11.3835 12.7724 11.7042C12.182 11.6743 11.6045 11.5199 11.0772 11.2509C10.5499 10.9818 10.0847 10.6042 9.71166 10.1424C9.5223 10.4718 9.46451 10.8613 9.55003 11.232C9.63555 11.6026 9.85796 11.9266 10.1721 12.1382C9.9367 12.1301 9.70647 12.0665 9.49998 11.9524V11.9729C9.50039 12.3179 9.61908 12.6521 9.83599 12.9192C10.0529 13.1862 10.3547 13.3696 10.6904 13.4385C10.563 13.4738 10.4314 13.4914 10.2992 13.4908C10.206 13.4911 10.113 13.4824 10.0215 13.4649C10.1164 13.7619 10.3011 14.0215 10.5499 14.2075C10.7986 14.3934 11.0989 14.4964 11.4087 14.5019C10.8825 14.9181 10.2324 15.1438 9.56331 15.1427C9.4454 15.1432 9.32758 15.1364 9.21051 15.1222C9.88965 15.5582 10.6784 15.7897 11.4838 15.7895Z" fill="white"/>
</svg>
