<svg width="143" height="27" viewBox="0 0 143 27" fill="none" xmlns="http://www.w3.org/2000/svg">
<rect x="125.513" width="7.76336" height="9.20102" fill="#2862FA"/>
<rect x="142.478" y="9.20105" width="7.76336" height="9.20102" transform="rotate(90 142.478 9.20105)" fill="#2862FA"/>
<rect x="125.514" y="9.20105" width="7.76336" height="9.20102" transform="rotate(90 125.514 9.20105)" fill="#2862FA"/>
<rect x="125.514" y="16.9644" width="7.76336" height="9.20102" fill="#2862FA"/>
<path d="M14.2262 2.83875V6.56859H4.62105V12.4769H11.9817V16.1408H4.62105V25.878H0V2.83875H14.2262Z" fill="black"/>
<path d="M22.124 7.59182V25.878H17.503V7.59182H22.124Z" fill="black"/>
<path d="M36.823 7.32776C39.0014 7.32776 40.7619 8.02092 42.1042 9.40724C43.4465 10.7715 44.1176 12.686 44.1176 15.1505V25.878H39.4966V15.7777C39.4966 14.3254 39.1335 13.2141 38.4073 12.4439C37.6812 11.6517 36.6909 11.2557 35.4366 11.2557C34.1604 11.2557 33.1481 11.6517 32.4 12.4439C31.6738 13.2141 31.3107 14.3254 31.3107 15.7777V25.878H26.6897V7.59182H31.3107V9.86934C31.9268 9.07716 32.708 8.46102 33.6542 8.02092C34.6225 7.55882 35.6787 7.32776 36.823 7.32776Z" fill="black"/>
<path d="M47.3237 16.6689C47.3237 14.8205 47.6868 13.1811 48.413 11.7508C49.1611 10.3204 50.1624 9.22019 51.4167 8.45002C52.6929 7.67984 54.1123 7.29476 55.6746 7.29476C57.0389 7.29476 58.2272 7.56982 59.2394 8.11994C60.2737 8.67007 61.0989 9.36323 61.715 10.1994V7.59182H66.369V25.878H61.715V23.2044C61.1209 24.0626 60.2957 24.7777 59.2394 25.3499C58.2052 25.9 57.0059 26.175 55.6416 26.175C54.1013 26.175 52.6929 25.779 51.4167 24.9868C50.1624 24.1946 49.1611 23.0833 48.413 21.653C47.6868 20.2007 47.3237 18.5393 47.3237 16.6689ZM61.715 16.7349C61.715 15.6126 61.4949 14.6554 61.0548 13.8632C60.6147 13.0491 60.0206 12.4329 59.2724 12.0148C58.5243 11.5747 57.7211 11.3547 56.8629 11.3547C56.0047 11.3547 55.2125 11.5637 54.4864 11.9818C53.7602 12.3999 53.1661 13.0161 52.7039 13.8302C52.2639 14.6224 52.0438 15.5686 52.0438 16.6689C52.0438 17.7691 52.2639 18.7374 52.7039 19.5735C53.1661 20.3877 53.7602 21.0149 54.4864 21.455C55.2345 21.8951 56.0267 22.1151 56.8629 22.1151C57.7211 22.1151 58.5243 21.9061 59.2724 21.488C60.0206 21.0479 60.6147 20.4317 61.0548 19.6396C61.4949 18.8254 61.715 17.8572 61.715 16.7349Z" fill="black"/>
<path d="M81.0156 7.32776C83.1941 7.32776 84.9545 8.02092 86.2968 9.40724C87.6391 10.7715 88.3103 12.686 88.3103 15.1505V25.878H83.6892V15.7777C83.6892 14.3254 83.3261 13.2141 82.6 12.4439C81.8738 11.6517 80.8836 11.2557 79.6293 11.2557C78.353 11.2557 77.3408 11.6517 76.5926 12.4439C75.8664 13.2141 75.5034 14.3254 75.5034 15.7777V25.878H70.8823V7.59182H75.5034V9.86934C76.1195 9.07716 76.9007 8.46102 77.8469 8.02092C78.8151 7.55882 79.8714 7.32776 81.0156 7.32776Z" fill="black"/>
<path d="M91.5164 16.7349C91.5164 14.8425 91.9015 13.1921 92.6716 11.7838C93.4418 10.3535 94.5091 9.2532 95.8734 8.48303C97.2377 7.69085 98.8 7.29476 100.56 7.29476C102.827 7.29476 104.697 7.86689 106.172 9.01115C107.668 10.1334 108.669 11.7178 109.175 13.7642H104.191C103.927 12.972 103.476 12.3559 102.838 11.9158C102.222 11.4537 101.452 11.2226 100.527 11.2226C99.2071 11.2226 98.1619 11.7068 97.3917 12.675C96.6215 13.6212 96.2365 14.9745 96.2365 16.7349C96.2365 18.4733 96.6215 19.8266 97.3917 20.7948C98.1619 21.741 99.2071 22.2141 100.527 22.2141C102.398 22.2141 103.619 21.378 104.191 19.7056H109.175C108.669 21.686 107.668 23.2594 106.172 24.4256C104.675 25.5919 102.805 26.175 100.56 26.175C98.8 26.175 97.2377 25.79 95.8734 25.0198C94.5091 24.2276 93.4418 23.1274 92.6716 21.719C91.9015 20.2887 91.5164 18.6273 91.5164 16.7349Z" fill="black"/>
<circle cx="19.8045" cy="2.6406" r="2.6406" fill="#2862FA"/>
</svg>
