<svg width="25" height="25" viewBox="0 0 25 25" fill="none" xmlns="http://www.w3.org/2000/svg">
<circle cx="12.5" cy="12.5" r="12.5" fill="#B592FF"/>
<path d="M12.6989 10.7768C11.6348 10.7768 10.776 11.6356 10.776 12.6997C10.776 13.7638 11.6348 14.6226 12.6989 14.6226C13.763 14.6226 14.6218 13.7638 14.6218 12.6997C14.6218 11.6356 13.763 10.7768 12.6989 10.7768ZM12.6989 13.9494C12.0108 13.9494 11.4492 13.3879 11.4492 12.6997C11.4492 12.0116 12.0108 11.45 12.6989 11.45C13.387 11.45 13.9486 12.0116 13.9486 12.6997C13.9486 13.3879 13.387 13.9494 12.6989 13.9494ZM14.7005 10.25C14.4521 10.25 14.2514 10.4506 14.2514 10.699C14.2514 10.9475 14.4521 11.1481 14.7005 11.1481C14.949 11.1481 15.1496 10.9484 15.1496 10.699C15.1497 10.64 15.1381 10.5816 15.1156 10.5271C15.093 10.4726 15.0599 10.423 15.0182 10.3813C14.9765 10.3396 14.927 10.3065 14.8725 10.284C14.8179 10.2615 14.7595 10.2499 14.7005 10.25ZM16.4471 12.6997C16.4471 12.1822 16.4518 11.6694 16.4227 11.1528C16.3937 10.5528 16.2568 10.0203 15.818 9.58151C15.3783 9.14181 14.8468 9.00587 14.2467 8.9768C13.7292 8.94774 13.2164 8.95243 12.6998 8.95243C12.1823 8.95243 11.6695 8.94774 11.1529 8.9768C10.5529 9.00587 10.0204 9.14274 9.58163 9.58151C9.14193 10.0212 9.00599 10.5528 8.97692 11.1528C8.94786 11.6703 8.95255 12.1831 8.95255 12.6997C8.95255 13.2163 8.94786 13.7301 8.97692 14.2466C9.00599 14.8466 9.14287 15.3792 9.58163 15.8179C10.0213 16.2576 10.5529 16.3936 11.1529 16.4226C11.6704 16.4517 12.1833 16.447 12.6998 16.447C13.2173 16.447 13.7302 16.4517 14.2467 16.4226C14.8468 16.3936 15.3793 16.2567 15.818 15.8179C16.2577 15.3782 16.3937 14.8466 16.4227 14.2466C16.4527 13.7301 16.4471 13.2172 16.4471 12.6997ZM15.6221 14.9104C15.5537 15.081 15.4712 15.2085 15.339 15.3398C15.2068 15.472 15.0802 15.5545 14.9096 15.6229C14.4164 15.8189 13.2455 15.7748 12.6989 15.7748C12.1523 15.7748 10.9804 15.8189 10.4873 15.6238C10.3166 15.5554 10.1891 15.4729 10.0579 15.3407C9.9257 15.2085 9.8432 15.082 9.77476 14.9113C9.57975 14.4173 9.62382 13.2463 9.62382 12.6997C9.62382 12.1531 9.57975 10.9812 9.77476 10.4881C9.8432 10.3175 9.9257 10.19 10.0579 10.0587C10.1901 9.92745 10.3166 9.84401 10.4873 9.77557C10.9804 9.58057 12.1523 9.62463 12.6989 9.62463C13.2455 9.62463 14.4174 9.58057 14.9105 9.77557C15.0811 9.84401 15.2086 9.92651 15.3399 10.0587C15.4721 10.1909 15.5546 10.3175 15.623 10.4881C15.818 10.9812 15.774 12.1531 15.774 12.6997C15.774 13.2463 15.818 14.4173 15.6221 14.9104Z" fill="white"/>
</svg>
