<svg width="25" height="25" viewBox="0 0 25 25" fill="none" xmlns="http://www.w3.org/2000/svg">
<circle cx="12.5" cy="12.5" r="12.5" fill="#7BA0FF"/>
<path d="M14.4737 8.77455C14.4737 8.71641 14.4516 8.66065 14.4124 8.61954C14.3731 8.57842 14.3199 8.55533 14.2643 8.55533H13.2177C12.6906 8.52783 12.1746 8.71992 11.7824 9.08962C11.3902 9.45931 11.1536 9.97657 11.1244 10.5284V11.7122H10.0777C10.0222 11.7122 9.96898 11.7353 9.92972 11.7764C9.89046 11.8175 9.86841 11.8733 9.86841 11.9314V13.0714C9.86841 13.1295 9.89046 13.1853 9.92972 13.2264C9.96898 13.2675 10.0222 13.2906 10.0777 13.2906H11.1244V16.2282C11.1244 16.2864 11.1464 16.3421 11.1857 16.3833C11.225 16.4244 11.2782 16.4475 11.3337 16.4475H12.5897C12.6452 16.4475 12.6985 16.4244 12.7377 16.3833C12.777 16.3421 12.799 16.2864 12.799 16.2282V13.2906H13.8959C13.9425 13.2913 13.9879 13.2757 14.0251 13.2464C14.0622 13.217 14.089 13.1755 14.1011 13.1284L14.4025 11.9884C14.4108 11.956 14.4119 11.9221 14.4058 11.8891C14.3996 11.8562 14.3863 11.8252 14.3669 11.7985C14.3475 11.7719 14.3225 11.7502 14.2938 11.7352C14.2651 11.7203 14.2336 11.7124 14.2015 11.7122H12.799V10.5284C12.8094 10.4198 12.8581 10.3193 12.9355 10.2463C13.0129 10.1733 13.1135 10.1332 13.2177 10.1338H14.2643C14.3199 10.1338 14.3731 10.1107 14.4124 10.0695C14.4516 10.0284 14.4737 9.97267 14.4737 9.91453V8.77455Z" fill="white"/>
</svg>
