<svg width="1390" height="810" viewBox="0 0 1390 810" fill="none" xmlns="http://www.w3.org/2000/svg">
<mask id="mask0_1_9" style="mask-type:alpha" maskUnits="userSpaceOnUse" x="-50" y="-8" width="1440" height="818">
<rect x="-50" y="-8" width="1440" height="818" fill="#D9D9D9"/>
</mask>
<g mask="url(#mask0_1_9)">
<rect x="-263" y="-17.9316" width="1781" height="827.932" fill="#0A0527"/>
<path d="M-144 16.2162C-144 -29.0711 -107.287 -65.7837 -62 -65.7837H1473C1518.29 -65.7837 1555 -29.071 1555 16.2163V814.514H-144V16.2162Z" fill="white" fill-opacity="0.05"/>
<line y1="-0.5" x2="2214.51" y2="-0.5" transform="matrix(0.907836 0.419326 -0.492984 0.870038 -53.4128 -875.658)" stroke="url(#paint0_linear_1_9)" stroke-opacity="0.1"/>
<line y1="-0.5" x2="2214.51" y2="-0.5" transform="matrix(0.907836 0.419326 -0.492984 0.870038 -89.9602 -811.158)" stroke="url(#paint1_linear_1_9)" stroke-opacity="0.1"/>
<line y1="-0.5" x2="2214.51" y2="-0.5" transform="matrix(0.907836 0.419326 -0.492984 0.870038 -126.508 -746.657)" stroke="url(#paint2_linear_1_9)" stroke-opacity="0.1"/>
<line y1="-0.5" x2="2214.51" y2="-0.5" transform="matrix(0.907836 0.419326 -0.492984 0.870038 -163.055 -682.157)" stroke="url(#paint3_linear_1_9)" stroke-opacity="0.1"/>
<line y1="-0.5" x2="2214.51" y2="-0.5" transform="matrix(0.907836 0.419326 -0.492984 0.870038 -199.602 -617.657)" stroke="url(#paint4_linear_1_9)" stroke-opacity="0.1"/>
<line y1="-0.5" x2="2214.51" y2="-0.5" transform="matrix(0.907836 0.419326 -0.492984 0.870038 -236.149 -553.157)" stroke="url(#paint5_linear_1_9)" stroke-opacity="0.1"/>
<line y1="-0.5" x2="2214.51" y2="-0.5" transform="matrix(0.907836 0.419326 -0.492984 0.870038 -272.697 -488.657)" stroke="url(#paint6_linear_1_9)" stroke-opacity="0.1"/>
<line y1="-0.5" x2="2214.51" y2="-0.5" transform="matrix(0.907836 0.419326 -0.492984 0.870038 -309.244 -424.157)" stroke="url(#paint7_linear_1_9)" stroke-opacity="0.1"/>
<line y1="-0.5" x2="2214.51" y2="-0.5" transform="matrix(0.907836 0.419326 -0.492984 0.870038 -345.791 -359.657)" stroke="url(#paint8_linear_1_9)" stroke-opacity="0.1"/>
<line y1="-0.5" x2="2214.51" y2="-0.5" transform="matrix(0.907836 0.419326 -0.492984 0.870038 -382.338 -295.157)" stroke="url(#paint9_linear_1_9)" stroke-opacity="0.1"/>
<line y1="-0.5" x2="2214.51" y2="-0.5" transform="matrix(0.907836 0.419326 -0.492984 0.870038 -418.886 -230.657)" stroke="url(#paint10_linear_1_9)" stroke-opacity="0.1"/>
<line y1="-0.5" x2="2214.51" y2="-0.5" transform="matrix(0.907836 0.419326 -0.492984 0.870038 -455.433 -166.156)" stroke="url(#paint11_linear_1_9)" stroke-opacity="0.1"/>
<line y1="-0.5" x2="2214.51" y2="-0.5" transform="matrix(0.907836 0.419326 -0.492984 0.870038 -491.98 -101.656)" stroke="url(#paint12_linear_1_9)" stroke-opacity="0.1"/>
<line y1="-0.5" x2="2214.51" y2="-0.5" transform="matrix(0.907836 0.419326 -0.492984 0.870038 -528.527 -37.1562)" stroke="url(#paint13_linear_1_9)" stroke-opacity="0.1"/>
<line y1="-0.5" x2="2214.51" y2="-0.5" transform="matrix(0.907836 0.419326 -0.492984 0.870038 -565.075 27.3438)" stroke="url(#paint14_linear_1_9)" stroke-opacity="0.1"/>
<line y1="-0.5" x2="2214.51" y2="-0.5" transform="matrix(0.907836 0.419326 -0.492984 0.870038 -601.622 91.8442)" stroke="url(#paint15_linear_1_9)" stroke-opacity="0.1"/>
<line y1="-0.5" x2="2214.51" y2="-0.5" transform="matrix(0.907836 0.419326 -0.492984 0.870038 -638.169 156.344)" stroke="url(#paint16_linear_1_9)" stroke-opacity="0.1"/>
<line y1="-0.5" x2="2214.51" y2="-0.5" transform="matrix(0.907836 0.419326 -0.492984 0.870038 -674.716 220.844)" stroke="url(#paint17_linear_1_9)" stroke-opacity="0.1"/>
<line y1="-0.5" x2="2214.51" y2="-0.5" transform="matrix(0.907836 0.419326 -0.492984 0.870038 -711.264 285.344)" stroke="url(#paint18_linear_1_9)" stroke-opacity="0.1"/>
<line y1="-0.5" x2="2214.51" y2="-0.5" transform="matrix(0.907836 0.419326 -0.492984 0.870038 -747.811 349.844)" stroke="url(#paint19_linear_1_9)" stroke-opacity="0.1"/>
<line y1="-0.5" x2="2214.51" y2="-0.5" transform="matrix(0.907836 0.419326 -0.492984 0.870038 -784.358 414.344)" stroke="url(#paint20_linear_1_9)" stroke-opacity="0.1"/>
<line y1="-0.5" x2="2214.51" y2="-0.5" transform="matrix(0.907836 0.419326 -0.492984 0.870038 -820.905 478.845)" stroke="url(#paint21_linear_1_9)" stroke-opacity="0.1"/>
<line y1="-0.5" x2="2214.51" y2="-0.5" transform="matrix(0.907836 0.419326 -0.492984 0.870038 -857.453 543.345)" stroke="url(#paint22_linear_1_9)" stroke-opacity="0.1"/>
<line y1="-0.5" x2="2214.51" y2="-0.5" transform="matrix(0.907836 0.419326 -0.492984 0.870038 -894 607.845)" stroke="url(#paint23_linear_1_9)" stroke-opacity="0.1"/>
<g filter="url(#filter0_f_1_9)">
<ellipse cx="201" cy="409.126" rx="368" ry="328.645" fill="#0E0522"/>
</g>
</g>
<defs>
<filter id="filter0_f_1_9" x="-367" y="-119.519" width="1136" height="1057.29" filterUnits="userSpaceOnUse" color-interpolation-filters="sRGB">
<feFlood flood-opacity="0" result="BackgroundImageFix"/>
<feBlend mode="normal" in="SourceGraphic" in2="BackgroundImageFix" result="shape"/>
<feGaussianBlur stdDeviation="100" result="effect1_foregroundBlur_1_9"/>
</filter>
<linearGradient id="paint0_linear_1_9" x1="1107.26" y1="0" x2="1107.26" y2="1" gradientUnits="userSpaceOnUse">
<stop stop-color="white" stop-opacity="0.54"/>
<stop offset="1" stop-color="white" stop-opacity="0.5"/>
</linearGradient>
<linearGradient id="paint1_linear_1_9" x1="1107.26" y1="0" x2="1107.26" y2="1" gradientUnits="userSpaceOnUse">
<stop stop-color="white" stop-opacity="0.54"/>
<stop offset="1" stop-color="white" stop-opacity="0.5"/>
</linearGradient>
<linearGradient id="paint2_linear_1_9" x1="1107.26" y1="0" x2="1107.26" y2="1" gradientUnits="userSpaceOnUse">
<stop stop-color="white" stop-opacity="0.54"/>
<stop offset="1" stop-color="white" stop-opacity="0.5"/>
</linearGradient>
<linearGradient id="paint3_linear_1_9" x1="1107.26" y1="0" x2="1107.26" y2="1" gradientUnits="userSpaceOnUse">
<stop stop-color="white" stop-opacity="0.54"/>
<stop offset="1" stop-color="white" stop-opacity="0.5"/>
</linearGradient>
<linearGradient id="paint4_linear_1_9" x1="1107.26" y1="0" x2="1107.26" y2="1" gradientUnits="userSpaceOnUse">
<stop stop-color="white" stop-opacity="0.54"/>
<stop offset="1" stop-color="white" stop-opacity="0.5"/>
</linearGradient>
<linearGradient id="paint5_linear_1_9" x1="1107.26" y1="0" x2="1107.26" y2="1" gradientUnits="userSpaceOnUse">
<stop stop-color="white" stop-opacity="0.54"/>
<stop offset="1" stop-color="white" stop-opacity="0.5"/>
</linearGradient>
<linearGradient id="paint6_linear_1_9" x1="1107.26" y1="0" x2="1107.26" y2="1" gradientUnits="userSpaceOnUse">
<stop stop-color="white" stop-opacity="0.54"/>
<stop offset="1" stop-color="white" stop-opacity="0.5"/>
</linearGradient>
<linearGradient id="paint7_linear_1_9" x1="1107.26" y1="0" x2="1107.26" y2="1" gradientUnits="userSpaceOnUse">
<stop stop-color="white" stop-opacity="0.54"/>
<stop offset="1" stop-color="white" stop-opacity="0.5"/>
</linearGradient>
<linearGradient id="paint8_linear_1_9" x1="1107.26" y1="0" x2="1107.26" y2="1" gradientUnits="userSpaceOnUse">
<stop stop-color="white" stop-opacity="0.54"/>
<stop offset="1" stop-color="white" stop-opacity="0.5"/>
</linearGradient>
<linearGradient id="paint9_linear_1_9" x1="1107.26" y1="0" x2="1107.26" y2="1" gradientUnits="userSpaceOnUse">
<stop stop-color="white" stop-opacity="0.54"/>
<stop offset="1" stop-color="white" stop-opacity="0.5"/>
</linearGradient>
<linearGradient id="paint10_linear_1_9" x1="1107.26" y1="0" x2="1107.26" y2="1" gradientUnits="userSpaceOnUse">
<stop stop-color="white" stop-opacity="0.54"/>
<stop offset="1" stop-color="white" stop-opacity="0.5"/>
</linearGradient>
<linearGradient id="paint11_linear_1_9" x1="1107.26" y1="0" x2="1107.26" y2="1" gradientUnits="userSpaceOnUse">
<stop stop-color="white" stop-opacity="0.54"/>
<stop offset="1" stop-color="white" stop-opacity="0.5"/>
</linearGradient>
<linearGradient id="paint12_linear_1_9" x1="1107.26" y1="0" x2="1107.26" y2="1" gradientUnits="userSpaceOnUse">
<stop stop-color="white" stop-opacity="0.54"/>
<stop offset="1" stop-color="white" stop-opacity="0.5"/>
</linearGradient>
<linearGradient id="paint13_linear_1_9" x1="1107.26" y1="0" x2="1107.26" y2="1" gradientUnits="userSpaceOnUse">
<stop stop-color="white" stop-opacity="0.54"/>
<stop offset="1" stop-color="white" stop-opacity="0.5"/>
</linearGradient>
<linearGradient id="paint14_linear_1_9" x1="1107.26" y1="0" x2="1107.26" y2="1" gradientUnits="userSpaceOnUse">
<stop stop-color="white" stop-opacity="0.54"/>
<stop offset="1" stop-color="white" stop-opacity="0.5"/>
</linearGradient>
<linearGradient id="paint15_linear_1_9" x1="1107.26" y1="0" x2="1107.26" y2="1" gradientUnits="userSpaceOnUse">
<stop stop-color="white" stop-opacity="0.54"/>
<stop offset="1" stop-color="white" stop-opacity="0.5"/>
</linearGradient>
<linearGradient id="paint16_linear_1_9" x1="1107.26" y1="0" x2="1107.26" y2="1" gradientUnits="userSpaceOnUse">
<stop stop-color="white" stop-opacity="0.54"/>
<stop offset="1" stop-color="white" stop-opacity="0.5"/>
</linearGradient>
<linearGradient id="paint17_linear_1_9" x1="1107.26" y1="0" x2="1107.26" y2="1" gradientUnits="userSpaceOnUse">
<stop stop-color="white" stop-opacity="0.54"/>
<stop offset="1" stop-color="white" stop-opacity="0.5"/>
</linearGradient>
<linearGradient id="paint18_linear_1_9" x1="1107.26" y1="0" x2="1107.26" y2="1" gradientUnits="userSpaceOnUse">
<stop stop-color="white" stop-opacity="0.54"/>
<stop offset="1" stop-color="white" stop-opacity="0.5"/>
</linearGradient>
<linearGradient id="paint19_linear_1_9" x1="1107.26" y1="0" x2="1107.26" y2="1" gradientUnits="userSpaceOnUse">
<stop stop-color="white" stop-opacity="0.54"/>
<stop offset="1" stop-color="white" stop-opacity="0.5"/>
</linearGradient>
<linearGradient id="paint20_linear_1_9" x1="1107.26" y1="0" x2="1107.26" y2="1" gradientUnits="userSpaceOnUse">
<stop stop-color="white" stop-opacity="0.54"/>
<stop offset="1" stop-color="white" stop-opacity="0.5"/>
</linearGradient>
<linearGradient id="paint21_linear_1_9" x1="1107.26" y1="0" x2="1107.26" y2="1" gradientUnits="userSpaceOnUse">
<stop stop-color="white" stop-opacity="0.54"/>
<stop offset="1" stop-color="white" stop-opacity="0.5"/>
</linearGradient>
<linearGradient id="paint22_linear_1_9" x1="1107.26" y1="0" x2="1107.26" y2="1" gradientUnits="userSpaceOnUse">
<stop stop-color="white" stop-opacity="0.54"/>
<stop offset="1" stop-color="white" stop-opacity="0.5"/>
</linearGradient>
<linearGradient id="paint23_linear_1_9" x1="1107.26" y1="0" x2="1107.26" y2="1" gradientUnits="userSpaceOnUse">
<stop stop-color="white" stop-opacity="0.54"/>
<stop offset="1" stop-color="white" stop-opacity="0.5"/>
</linearGradient>
</defs>
</svg>
