<svg width="438" height="295" viewBox="0 0 438 295" fill="none" xmlns="http://www.w3.org/2000/svg">
<mask id="mask0_1_142" style="mask-type:luminance" maskUnits="userSpaceOnUse" x="71" y="220" width="73" height="73">
<path d="M143.218 220.573H71.0488V292.742H143.218V220.573Z" fill="white"/>
</mask>
<g mask="url(#mask0_1_142)">
<path d="M159.914 257.752L158.498 259.161L155.022 262.644L151.539 266.119L148.064 269.602L144.588 273.078L141.105 276.561L137.629 280.037L134.146 283.512L130.671 286.995L123.856 293.81L123.689 293.984L120.206 297.46L116.731 300.935L113.248 304.419L109.772 307.894L108.197 309.469H108.856L110.597 307.728L114.08 304.244L117.556 300.769L121.039 297.286L124.515 293.81L127.998 290.335L131.473 286.851L134.956 283.376L138.432 279.893L141.908 276.417L145.391 272.934L148.866 269.451L152.349 265.975L155.825 262.492L159.308 259.017L159.876 258.449C159.906 258.176 159.914 257.972 159.914 257.752Z" fill="#2862FA"/>
<path d="M159.709 261.432L158.498 262.644L155.022 266.119L151.539 269.602L148.064 273.078L141.249 279.893L141.082 280.059L137.607 283.535L134.124 287.018L130.648 290.494L127.165 293.977L123.689 297.452L120.206 300.928L116.731 304.411L113.248 307.886L111.877 309.257L112.589 309.196L117.389 304.396L117.556 304.222L121.039 300.746L124.515 297.263L127.998 293.787L131.473 290.312L134.957 286.829L138.432 283.353L141.908 279.87L145.391 276.394L148.866 272.911L152.349 269.428L155.825 265.953L159.308 262.47L159.626 262.151C159.672 261.902 159.694 261.667 159.709 261.432Z" fill="#2862FA"/>
<path d="M131.602 303.449C132.079 303.199 132.549 302.949 133.011 302.692L134.979 300.731L138.455 297.248L141.93 293.772L145.413 290.297L148.889 286.814L152.372 283.338L153.129 282.581C153.387 282.111 153.644 281.642 153.887 281.172L151.501 283.55L148.026 287.033L141.211 293.848L141.044 294.022L137.569 297.498L134.086 300.973L131.602 303.449Z" fill="#2862FA"/>
<path d="M125.348 306.228L126.385 305.834L128.02 304.199L131.496 300.723L134.979 297.24L138.455 293.765L141.93 290.289L145.413 286.806L148.889 283.33L152.372 279.847L155.848 276.349L156.309 275.887C156.446 275.546 156.575 275.198 156.703 274.85L155.022 276.538L151.539 280.014L148.064 283.489L144.588 286.972L141.105 290.448L137.629 293.931L134.146 297.407L130.671 300.882L125.348 306.228Z" fill="#2862FA"/>
<path d="M124.538 304.199L128.021 300.723L131.496 297.24L134.979 293.765L138.455 290.289L141.93 286.806L145.414 283.331L148.889 279.847L152.372 276.372L155.848 272.889L158.036 270.7C158.119 270.405 158.203 270.11 158.278 269.814L155.022 273.07L151.539 276.554L148.064 280.029L144.588 283.505L141.105 286.988L137.63 290.463L134.146 293.946L130.671 297.422L127.188 300.898L123.712 304.381L120.297 307.796L121.176 307.553L124.538 304.199Z" fill="#2862FA"/>
<path d="M121.062 304.199L124.538 300.723L128.021 297.24L134.835 290.425L135.01 290.259L138.485 286.776L141.961 283.3L148.919 276.341L152.403 272.858L155.878 269.375L159.096 266.157C159.149 265.9 159.187 265.642 159.232 265.4L156.794 267.838L155.053 269.58L151.57 273.055L148.094 276.538L144.618 280.014L141.135 283.489L137.66 286.973L134.177 290.448L130.701 293.931L127.218 297.407L123.742 300.882L120.259 304.365L116.784 307.841L115.921 308.704L116.678 308.568L117.594 307.659L121.062 304.199Z" fill="#2862FA"/>
<path d="M74.0398 215.546C71.0887 217.925 68.4005 220.613 66.0211 223.564L68.8757 220.71L72.3513 217.234L74.0398 215.546Z" fill="#2862FA"/>
<path d="M159.255 248.007L158.536 248.726L155.06 252.209L151.577 255.685L148.102 259.16L144.626 262.644L141.143 266.119L137.667 269.602L134.184 273.078L130.709 276.561L127.225 280.036L123.75 283.512L120.267 286.995L116.791 290.471L113.308 293.954L109.833 297.429L106.349 300.905L102.874 304.388L99.3983 307.864L98.5276 308.742L99.0803 308.833L103.707 304.199L107.19 300.723L110.665 297.24L117.48 290.425L117.647 290.259L121.13 286.776L124.606 283.3L128.089 279.817L131.564 276.341L135.047 272.858L138.523 269.375L141.999 265.9L145.482 262.416L148.957 258.941L152.44 255.458L155.916 251.982L159.376 248.522C159.255 248.378 159.255 248.196 159.255 248.007Z" fill="#2862FA"/>
<path d="M159.634 251.074L158.498 252.21L155.022 255.685L151.539 259.161L148.064 262.644L142.847 267.861L141.105 269.602L137.629 273.078L134.146 276.561L130.671 280.037L127.188 283.512L123.712 286.995L120.229 290.471L116.753 293.954L113.27 297.43L109.795 300.905L106.312 304.388L102.836 307.864L101.541 309.159L102.132 309.212L103.646 307.697L107.129 304.214L110.605 300.739L114.088 297.255L117.609 293.765L121.092 290.289L124.568 286.806L128.051 283.331L135.01 276.372L138.485 272.889L141.961 269.406L147.594 263.78L148.919 262.447L152.402 258.971L155.878 255.488L159.361 252.013L159.725 251.649C159.672 251.46 159.656 251.271 159.634 251.074Z" fill="#2862FA"/>
<path d="M159.876 254.314L158.498 255.685L155.022 259.161L151.539 262.644L148.064 266.119L144.588 269.602L141.105 273.078L137.63 276.561L134.146 280.037L130.671 283.512L127.188 286.995L123.712 290.471L120.229 293.954L116.754 297.43L113.27 300.905L106.312 307.864L104.797 309.378H105.418L107.16 307.637L110.635 304.153L114.118 300.678L117.594 297.195L121.077 293.719L124.553 290.244L128.036 286.761L131.511 283.285L134.995 279.802L138.47 276.326L141.946 272.843L145.429 269.36L148.904 265.884L152.387 262.401L155.863 258.926L159.346 255.443L159.914 254.875L159.876 254.314Z" fill="#2862FA"/>
<path d="M155.151 234.703L155.023 234.832L151.539 238.307L148.064 241.783L144.588 245.266L141.105 248.741L137.63 252.225L134.147 255.7L130.671 259.176L127.188 262.659L123.712 266.134L120.229 269.617L116.754 273.093L113.27 276.576L109.795 280.052L106.312 283.527L102.836 287.01L99.3607 290.486L95.8851 293.969L92.4096 297.445L88.9264 300.92L85.4509 304.403L85.1631 304.683L85.6099 304.888L86.1096 304.388L86.2762 304.214L89.7594 300.738L93.2349 297.255L96.7105 293.78L100.194 290.304L103.669 286.821L107.152 283.346L110.628 279.862L114.111 276.387L117.587 272.904L121.07 269.421L124.545 265.945L128.028 262.462L131.504 258.986L134.987 255.503L138.463 252.028L141.938 248.552L145.421 245.069L148.897 241.593L152.38 238.11L155.356 235.134C155.28 234.983 155.212 234.832 155.151 234.703Z" fill="#2862FA"/>
<path d="M156.37 237.58L156.188 237.126L155.022 238.292L151.539 241.768L148.064 245.251L144.588 248.726L141.105 252.209L137.629 255.685L134.146 259.161L130.671 262.644L125.446 267.861L123.712 269.602L120.229 273.078L116.753 276.561L113.27 280.037L109.795 283.512L106.312 286.995L102.836 290.471L99.3604 293.954L95.8849 297.43L92.4093 300.905L88.9262 304.388L87.6011 305.713L88.063 305.895L89.7591 304.199L93.2347 300.723L96.7102 297.24L103.669 290.289L107.152 286.806L110.628 283.33L117.609 276.349L121.092 272.866L124.568 269.383L128.051 265.907L131.526 262.424L135.009 258.949L138.485 255.465L141.961 251.99L145.444 248.514L148.919 245.031L152.402 241.556L155.878 238.072L156.37 237.58Z" fill="#2862FA"/>
<path d="M151.441 227.956L148.064 231.333L144.588 234.817L141.105 238.292L137.629 241.768L134.146 245.251L130.671 248.726L127.188 252.209L123.712 255.685L120.229 259.161L116.753 262.644L113.27 266.119L109.795 269.602L106.312 273.078L102.836 276.561L99.3604 280.037L95.8849 283.512L92.4093 286.995L88.9262 290.471L85.4507 293.954L81.9675 297.43L78.492 300.905L78.4314 300.966L78.8251 301.216L79.3173 300.723L82.8004 297.24L86.276 293.765L89.7591 290.289L93.2347 286.806L96.7102 283.33L103.669 276.372L107.152 272.889L110.628 269.406L116.261 263.78L117.586 262.447L121.069 258.971L124.545 255.488L128.028 252.013L131.504 248.537L134.987 245.054L138.462 241.578L141.938 238.095L145.421 234.62L148.897 231.137L151.683 228.342L151.441 227.956Z" fill="#2862FA"/>
<path d="M153.008 230.516L152.766 230.107L151.539 231.333L148.064 234.816L144.588 238.292L141.105 241.768L137.63 245.251L134.146 248.726L130.671 252.209L127.188 255.685L123.712 259.161L120.229 262.644L116.753 266.119L113.27 269.602L109.795 273.078L106.312 276.561L102.836 280.037L99.3605 283.512L95.885 286.995L92.4094 290.471L88.9263 293.954L85.4507 297.429L81.9676 300.905L80.5895 302.291L80.9908 302.525L82.8005 300.723L86.2761 297.24L89.7592 293.765L93.2348 290.289L96.7103 286.806L100.193 283.33L103.669 279.847L107.152 276.372L110.628 272.889L114.111 269.405L117.586 265.93L121.07 262.447L124.545 258.971L128.028 255.488L131.504 252.013L134.987 248.537L138.462 245.054L141.938 241.578L145.421 238.095L148.897 234.62L152.38 231.136L153.008 230.516Z" fill="#2862FA"/>
<path d="M147.254 222.353L146.958 222.005L144.588 224.375L141.082 227.888L137.607 231.364L134.124 234.847L130.648 238.322L127.165 241.798L123.689 245.281L120.206 248.757L116.731 252.24L113.248 255.715L109.772 259.191L106.289 262.674L102.813 266.149L99.3379 269.633L95.8623 273.108L92.3868 276.591L88.9036 280.067L85.4281 283.542L81.945 287.026L74.9863 293.984L72.4648 296.506L72.8055 296.801L75.8343 293.772L79.3099 290.297L82.793 286.814L86.2686 283.338L89.7517 279.855L93.2273 276.349L96.7028 272.866L100.186 269.383L103.661 265.907L107.145 262.424L110.62 258.948L114.103 255.465L117.579 251.99L121.062 248.514L124.538 245.031L128.021 241.556L131.496 238.072L134.979 234.597L138.455 231.114L141.93 227.631L145.414 224.155L147.254 222.353Z" fill="#2862FA"/>
<path d="M145.626 220.52L145.315 220.187L144.603 220.899L141.12 224.375L137.645 227.858L134.162 231.333L130.686 234.816L127.203 238.292L123.727 241.768L120.244 245.251L116.769 248.726L113.285 252.209L109.81 255.685L106.327 259.16L102.851 262.644L99.3757 266.119L95.9001 269.602L92.4246 273.078L88.9414 276.561L85.4659 280.036L81.9828 283.512L78.5072 286.995L75.0241 290.471L71.5485 293.954L70.6626 294.817L70.9958 295.128L72.3587 293.765L75.8419 290.289L79.3174 286.806L82.8005 283.33L86.2761 279.847L89.7592 276.372L93.2348 272.888L96.7103 269.405L103.419 262.704L103.669 262.447L107.152 258.971L110.628 255.488L114.111 252.012L117.586 248.537L121.07 245.054L124.545 241.578L128.028 238.095L131.504 234.62L134.987 231.136L138.462 227.653L141.938 224.178L145.421 220.695L145.626 220.52Z" fill="#2862FA"/>
<path d="M148.821 224.269L148.533 223.905L148.064 224.375L144.588 227.858L141.105 231.333L137.629 234.817L134.146 238.292L130.671 241.768L127.188 245.251L123.712 248.726L120.229 252.209L116.753 255.685L113.27 259.161L109.795 262.644L106.312 266.119L102.836 269.602L99.3605 273.078L92.5457 279.893L92.3791 280.059L88.896 283.535L85.4204 287.018L81.9373 290.494L78.4618 293.977L74.9786 297.452L74.3577 298.081L74.7136 298.361L75.8116 297.263L79.2871 293.787L82.7702 290.312L86.2458 286.829L89.7289 283.353L93.2045 279.87L96.68 276.394L100.163 272.911L103.639 269.428L107.122 265.953L110.597 262.47L114.081 258.994L117.556 255.511L121.039 252.035L124.515 248.56L127.998 245.077L131.473 241.601L134.957 238.118L138.432 234.642L141.908 231.159L145.391 227.676L148.821 224.269Z" fill="#2862FA"/>
<path d="M143.884 218.802L143.558 218.484L141.082 220.899L137.607 224.375L134.124 227.858L130.648 231.333L127.165 234.816L123.689 238.292L120.206 241.768L116.731 245.251L113.248 248.726L109.772 252.209L106.289 255.685L102.813 259.161L99.3378 262.644L94.1358 267.861L92.4018 269.602L88.9187 273.078L85.4431 276.561L81.96 280.037L78.4845 283.512L75.0013 286.995L71.5258 290.471L68.921 293.076L69.239 293.401L72.3511 290.289L75.8342 286.806L79.3098 283.33L86.2685 276.372L89.7516 272.889L93.2272 269.405L96.7027 265.93L100.186 262.447L103.661 258.971L107.145 255.488L110.62 252.013L114.103 248.537L117.579 245.054L121.062 241.578L124.537 238.095L128.021 234.62L131.496 231.144L134.979 227.661L138.455 224.185L141.93 220.702L143.884 218.802Z" fill="#2862FA"/>
<path d="M113.27 206.982L109.795 210.465L106.312 213.94L102.836 217.423L99.3604 220.899L95.8849 224.375L92.4093 227.858L88.9262 231.333L85.4506 234.816L81.9675 238.292L78.4919 241.767L75.0088 245.251L71.5332 248.726L68.0501 252.209L64.6049 255.685L61.1217 259.16L57.6462 262.644L55.0793 265.203L55.1701 265.756L58.4715 262.454L61.9546 258.979L65.4302 255.496L68.9133 252.02L72.3889 248.544L75.872 245.061L79.3476 241.586L82.8307 238.103L86.3063 234.627L89.7894 231.144L93.2649 227.661L96.7405 224.185L100.224 220.702L103.699 217.227L107.182 213.743L110.658 210.268L114.141 206.792L116.276 204.649L115.724 204.559L113.27 206.982Z" fill="#2862FA"/>
<path d="M109.795 206.982L106.312 210.465L102.836 213.941L99.3605 217.424L95.8849 220.899L92.4094 224.375L88.9262 227.858L85.4507 231.333L81.9676 234.817L78.492 238.292L75.0089 241.768L71.5333 245.251L68.0502 248.726L64.6049 252.209L61.1218 255.685L57.6462 259.161L54.6704 262.136L54.7386 262.712L54.996 262.454L58.4716 258.979L61.9547 255.496L65.3621 252.02L68.8453 248.545L72.3208 245.062L75.8039 241.586L79.2795 238.103L82.7626 234.627L86.2382 231.144L89.7213 227.661L93.1969 224.185L96.6724 220.702L100.156 217.227L103.631 213.744L107.114 210.268L110.59 206.793L113.164 204.218L112.589 204.15L109.795 206.982Z" fill="#2862FA"/>
<path d="M106.312 206.982L102.836 210.465L99.3605 213.94L95.8849 217.423L92.4094 220.899L88.9263 224.375L85.4507 227.858L81.9676 231.333L78.492 234.816L75.0089 238.292L71.5333 241.768L68.0502 245.251L64.6049 248.726L61.1218 252.209L57.6463 255.685L54.4433 258.888V259.509L54.9733 258.979L58.4489 255.496L61.932 252.02L65.3621 248.544L68.8453 245.061L72.3208 241.586L75.804 238.103L79.2795 234.627L82.7626 231.152L86.2382 227.668L89.7213 224.193L93.1969 220.71L96.6724 217.234L100.156 213.751L103.631 210.275L107.114 206.8L109.961 203.953H109.34L106.312 206.982Z" fill="#2862FA"/>
<path d="M102.836 206.982L99.3605 210.472L95.885 213.948L92.4094 217.431L88.9263 220.907L85.4508 224.382L81.9676 227.865L78.4921 231.341L75.0089 234.824L71.5334 238.3L68.0503 241.775L64.605 245.251L61.1219 248.726L57.6463 252.209L54.4055 255.45C54.4055 255.662 54.4055 255.882 54.4055 256.094L55.0037 255.496L58.4792 252.02L61.9624 248.545L65.4379 245.061L68.921 241.586L72.3966 238.103L75.8797 234.627L79.3553 231.144L82.8384 227.661L86.314 224.185L89.7971 220.702L93.2726 217.227L96.7482 213.744L100.231 210.268L103.707 206.792L106.622 203.877H105.971L102.836 206.982Z" fill="#2862FA"/>
<path d="M95.8774 206.982L92.4019 210.465L88.9187 213.94L85.4432 217.423L81.9601 220.899L78.4845 224.375L75.0014 227.858L71.5258 231.333L68.0427 234.816L64.605 238.292L61.1219 241.768L57.6463 245.251L55.14 247.749C55.14 248.007 55.0567 248.264 55.0188 248.507L58.4717 245.046L61.9548 241.571L65.4304 238.088L68.9135 234.612L72.389 231.129L75.8722 227.646L79.3477 224.17L82.8308 220.687L86.3064 217.211L89.7895 213.728L93.2651 210.253L96.7406 206.777L99.0122 204.506L98.255 204.634L95.8774 206.982Z" fill="#2862FA"/>
<path d="M96.7029 307.682L100.186 304.199L103.662 300.723L107.145 297.24L110.62 293.765L114.103 290.289L117.579 286.806L121.062 283.33L124.538 279.847L128.021 276.372L131.496 272.889L134.979 269.406L138.455 265.93L141.931 262.447L145.414 258.971L148.889 255.488L152.372 252.013L155.848 248.537L158.771 245.614L158.657 245.092L158.498 245.243L155.023 248.719L151.539 252.202L148.064 255.677L144.588 259.153L141.105 262.636L137.63 266.112L134.146 269.595L130.671 273.07L123.856 279.885L123.69 280.052L120.206 283.527L116.731 287.01L113.248 290.486L109.772 293.969L106.289 297.445L102.813 300.92L99.3606 304.366L95.8851 307.841L95.5746 308.152C95.7488 308.197 95.923 308.235 96.1047 308.265L96.7104 307.659L96.7029 307.682Z" fill="#2862FA"/>
<path d="M96.7026 304.199L100.186 300.723L103.661 297.24L107.144 293.765L110.62 290.289L114.103 286.806L117.579 283.33L121.062 279.847L124.537 276.372L128.02 272.889L131.496 269.405L134.979 265.93L138.455 262.447L141.93 258.971L145.413 255.488L148.889 252.013L152.372 248.537L155.848 245.054L158.119 242.782C158.074 242.616 158.036 242.449 157.983 242.275L155.053 245.213L151.569 248.688L148.094 252.172L144.618 255.647L141.082 259.16L137.607 262.644L134.123 266.119L130.648 269.602L127.165 273.078L123.689 276.561L120.206 280.037L116.731 283.512L113.247 286.995L106.289 293.954L102.813 297.429L99.3376 300.905L92.7727 307.478L93.28 307.614L96.7026 304.199Z" fill="#2862FA"/>
<path d="M93.2271 304.199L96.7026 300.723L100.186 297.24L103.661 293.765L107.144 290.289L110.62 286.806L114.103 283.33L117.579 279.847L121.062 276.372L124.537 272.889L128.02 269.405L133.646 263.779L134.979 262.447L138.455 258.971L141.93 255.488L145.413 252.013L148.889 248.537L152.372 245.054L155.848 241.578L157.286 240.14C157.233 239.973 157.188 239.814 157.127 239.655L155.022 241.76L151.539 245.243L148.064 248.719L144.588 252.202L141.105 255.677L137.629 259.153L134.146 262.636L130.671 266.112L127.188 269.595L123.712 273.07L120.229 276.553L116.753 280.029L113.27 283.505L109.795 286.988L106.312 290.463L102.836 293.946L99.3604 297.422L95.8849 300.897L92.4093 304.381L90.1377 306.652L90.6223 306.811L93.2271 304.199Z" fill="#2862FA"/>
<path d="M89.7215 206.823L88.722 207.179L85.4433 210.472L81.9602 213.948L78.4846 217.431L75.0015 220.907L71.5259 224.382L68.0428 227.865L64.6051 231.333L61.122 234.816L57.6994 238.239C57.5707 238.572 57.4571 238.905 57.336 239.246L58.4718 238.103L61.9549 234.627L65.3623 231.144L68.8454 227.661L72.321 224.185L75.8041 220.702L79.2797 217.227L82.7628 213.744L86.2384 210.268L89.7215 206.823Z" fill="#2862FA"/>
<path d="M86.2685 300.723L89.7516 297.24L93.2272 293.765L96.7028 290.289L100.186 286.806L103.661 283.331L107.145 279.847L110.62 276.372L114.103 272.889L117.579 269.406L121.062 265.93L124.537 262.447L128.021 258.971L131.496 255.488L134.979 252.013L138.455 248.537L141.93 245.054L145.414 241.578L148.889 238.095L152.372 234.62L154.227 232.765C154.152 232.628 154.076 232.484 154.008 232.341L151.539 234.809L148.064 238.285L144.588 241.76L141.105 245.243L137.63 248.719L134.146 252.202L130.671 255.678L127.188 259.153L123.712 262.636L120.229 266.112L116.753 269.595L113.27 273.07L106.312 280.029L102.836 283.505L99.3605 286.988L92.5457 293.803L92.3791 293.977L88.896 297.452L85.4205 300.928L82.8005 303.548L83.2246 303.767L86.2685 300.723Z" fill="#2862FA"/>
<path d="M82.3992 210.026L81.96 210.465L78.4845 213.94L75.0013 217.424L71.5258 220.899L68.0426 224.375L64.605 227.888L61.1218 231.364L60.5464 231.947C60.3091 232.386 60.0819 232.825 59.8649 233.264L61.9547 231.174L65.4303 227.691L68.9134 224.216L72.389 220.733L75.8721 217.257L79.3477 213.774L82.8308 210.298L83.7546 209.375C83.2775 209.571 82.8384 209.791 82.3992 210.026Z" fill="#2862FA"/>
<path d="M79.3099 297.24L86.1247 290.425L86.2913 290.259L89.7744 286.776L93.25 283.3L96.7255 279.817L100.194 276.349L103.669 272.866L107.152 269.383L110.628 265.907L114.111 262.424L117.586 258.949L121.07 255.465L124.545 251.99L128.028 248.514L131.504 245.031L134.987 241.556L138.462 238.073L141.938 234.597L145.421 231.121L148.897 227.638L150.305 226.23L150.04 225.859L148.071 227.828L144.596 231.303L141.113 234.786L137.637 238.262L134.154 241.737L130.678 245.221L127.195 248.696L123.72 252.179L120.237 255.655L116.761 259.13L113.278 262.613L106.319 269.572L102.844 273.048L99.3682 276.531L95.8926 280.006L92.4171 283.482L88.9339 286.965L85.4584 290.441L81.9752 293.924L78.4997 297.399L76.3719 299.519L76.7505 299.792L79.3099 297.24Z" fill="#2862FA"/>
<path d="M67.2627 291.251C67.3611 291.372 67.4671 291.478 67.5655 291.592L68.8755 290.289L72.3511 286.806L75.8342 283.33L79.3097 279.847L82.7777 276.349L86.2533 272.866L89.7364 269.383L93.212 265.907L96.6875 262.424L100.171 258.949L103.646 255.465L107.129 251.99L110.605 248.514L114.088 245.031L117.564 241.556L121.047 238.073L124.522 234.597L128.005 231.114L131.481 227.631L134.964 224.155L138.44 220.672L141.915 217.197L142.059 217.053L141.718 216.75L141.09 217.386L137.614 220.861L134.131 224.337L130.656 227.82L127.172 231.296L123.697 234.779L120.214 238.254L116.738 241.73L113.255 245.213L109.78 248.689L106.296 252.172L102.821 255.647L99.3453 259.123L95.8697 262.606L92.3942 266.081L88.9111 269.565L85.4355 273.04L81.9524 276.523L78.4768 279.999L74.9937 283.474L71.5181 286.957L68.035 290.433L67.2627 291.251Z" fill="#2862FA"/>
<path d="M64.196 287.366L64.4686 287.737L65.3621 286.806L68.8452 283.33L72.3208 279.847L75.8039 276.372L79.2794 272.888L82.7626 269.405L86.2381 265.93L89.7212 262.447L93.1968 258.971L96.6724 255.488L100.155 252.012L103.631 248.537L107.114 245.054L110.59 241.578L114.073 238.095L117.609 234.627L121.092 231.144L124.568 227.661L128.051 224.185L131.526 220.702L135.009 217.227L138.25 213.986L137.879 213.713L137.66 213.933L134.177 217.416L130.701 220.891L127.218 224.367L123.742 227.85L120.259 231.326L116.784 234.809L113.301 238.284L109.825 241.76L106.342 245.243L102.866 248.719L99.3907 252.202L95.9152 255.677L92.4396 259.153L88.9565 262.636L85.4809 266.111L81.9978 269.595L78.5222 273.07L75.0391 276.553L71.5636 280.029L68.0804 283.504L64.6049 286.995L64.196 287.366Z" fill="#2862FA"/>
<path d="M65.3623 283.33L72.3513 276.349L75.8344 272.866L79.3099 269.383L84.9435 263.757L86.2686 262.424L89.7517 258.949L93.2273 255.465L96.7029 251.99L100.186 248.514L103.662 245.031L107.145 241.556L110.62 238.073L114.103 234.597L117.579 231.114L121.062 227.631L124.538 224.155L128.021 220.672L131.496 217.196L134.979 213.713L136.161 212.532L135.774 212.275L134.146 213.903L130.671 217.386L127.188 220.861L123.712 224.337L120.229 227.82L116.754 231.296L113.27 234.779L109.795 238.254L106.312 241.73L102.836 245.213L99.3606 248.688L95.8851 252.172L92.4095 255.647L88.9264 259.123L85.4508 262.606L81.9677 266.081L78.4922 269.565L75.009 273.04L71.5335 276.523L68.0503 279.999L64.6051 283.512L62.8257 285.292L63.0755 285.685L65.3623 283.33Z" fill="#2862FA"/>
<path d="M65.9754 289.706L68.8755 286.806L72.3511 283.33L75.8342 279.847L79.3098 276.372L82.7929 272.888L86.2684 269.405L89.7516 265.93L93.2271 262.447L96.7027 258.971L100.186 255.488L103.661 252.012L107.144 248.537L110.62 245.054L114.103 241.578L117.579 238.095L121.062 234.62L124.537 231.136L128.021 227.653L131.496 224.178L134.979 220.695L138.455 217.219L140.189 215.485L139.833 215.197L137.629 217.408L134.146 220.884L130.671 224.359L127.188 227.843L123.712 231.318L120.229 234.801L116.753 238.277L113.27 241.752L109.795 245.235L106.312 248.711L102.836 252.194L99.3605 255.67L95.8849 259.145L92.4094 262.628L88.9262 266.104L85.4507 269.587L81.9675 273.063L75.0089 280.021L71.5333 283.497L68.0502 286.98L65.6953 289.335C65.7786 289.471 65.877 289.585 65.9754 289.706Z" fill="#2862FA"/>
<path d="M61.0838 280.037L60.2282 280.892L60.4554 281.316L61.9168 279.847L65.362 276.349L68.8452 272.866L72.3207 269.383L75.8038 265.907L79.2794 262.424L82.7625 258.949L86.2381 255.465L89.7212 251.99L93.1968 248.514L96.6723 245.031L100.155 241.556L103.631 238.073L107.114 234.597L110.59 231.114L114.073 227.631L117.548 224.155L121.032 220.672L124.507 217.196L127.99 213.713L131.466 210.238L131.761 209.942L131.345 209.723L130.64 210.427L127.157 213.903L123.682 217.386L120.199 220.861L116.723 224.337L113.24 227.82L109.764 231.296L106.281 234.779L102.806 238.254L99.3301 241.73L95.8545 245.213L92.379 248.688L88.8959 252.172L85.4203 255.647L81.9372 259.123L78.4616 262.606L74.9785 266.081L71.5029 269.565L68.0198 273.04L61.205 279.855L61.0308 280.021L61.0838 280.037Z" fill="#2862FA"/>
<path d="M61.9168 276.349L65.3923 272.866L68.8755 269.383L72.351 265.907L75.8342 262.424L79.3097 258.948L82.7928 255.465L86.2684 251.99L89.7515 248.514L93.2271 245.031L96.7026 241.555L100.186 238.072L103.661 234.597L107.144 231.114L110.62 227.631L114.103 224.155L117.579 220.672L121.062 217.196L124.537 213.713L128.02 210.238L129.474 208.784L129.035 208.579L127.188 210.472L123.712 213.948L120.229 217.431L116.753 220.907L113.27 224.382L109.795 227.865L106.312 231.341L102.836 234.824L99.3604 238.3L95.8848 241.775L92.4093 245.258L88.9262 248.734L85.4506 252.217L81.9675 255.692L78.4919 259.168L75.0088 262.651L71.5332 266.127L68.0501 269.61L64.6048 273.078L61.1217 276.561L59.1303 278.552L59.3347 278.992L61.9168 276.349Z" fill="#2862FA"/>
<path d="M61.705 283.542L61.917 283.33L65.3926 279.847L68.8757 276.372L72.3513 272.889L75.8344 269.405L79.31 265.93L82.7931 262.447L86.2686 258.971L89.7518 255.488L93.2273 252.012L96.7029 248.537L100.186 245.054L103.662 241.578L107.145 238.095L110.62 234.62L114.103 231.144L117.579 227.661L121.062 224.185L124.538 220.702L128.021 217.227L131.496 213.744L134.025 211.222L133.616 210.98L130.671 213.933L127.188 217.416L123.712 220.892L120.229 224.367L116.754 227.85L113.27 231.326L109.795 234.809L106.312 238.284L102.836 241.76L99.3607 245.243L95.8851 248.719L92.4095 252.202L88.9264 255.677L85.4509 259.153L81.9677 262.636L75.0091 269.595L71.5335 273.07L68.0504 276.553L64.6051 280.037L61.5006 283.141L61.705 283.542Z" fill="#2862FA"/>
<path d="M58.4337 241.586L61.9168 238.103L65.3621 234.627L68.8452 231.152L72.3208 227.668L75.8039 224.193L79.2795 220.71L82.7626 217.234L86.2381 213.751L89.7213 210.276L93.1968 206.8L94.6279 205.361L93.7799 205.573L92.3715 206.982L88.8883 210.465L85.4128 213.94L81.9297 217.424L78.4541 220.899L74.971 224.375L71.5257 227.888L68.0426 231.364L64.6049 234.816L61.1218 238.292L57.6462 241.768L56.0939 243.327C56.0182 243.608 55.9501 243.895 55.8819 244.175L58.4337 241.586Z" fill="#2862FA"/>
<path d="M58.4339 265.938L61.917 262.454L65.3623 258.979L68.8454 255.496L72.321 252.02L75.8041 248.545L79.2797 245.061L82.7628 241.586L86.2383 238.103L89.7215 234.627L93.197 231.144L96.6726 227.661L100.156 224.185L103.631 220.702L107.114 217.227L110.59 213.744L114.073 210.268L117.549 206.793L119.063 205.278L118.541 205.157L116.685 207.012L113.202 210.495L109.727 213.971L106.244 217.454L102.768 220.929L99.2925 224.405L95.8775 227.888L92.402 231.364L88.9188 234.847L85.4433 238.322L81.9602 241.798L78.4846 245.281L75.0015 248.757L71.5259 252.24L68.0428 255.715L64.6051 259.161L61.122 262.644L57.6464 266.119L55.6398 268.126C55.6398 268.3 55.7155 268.474 55.761 268.648L58.4339 265.938Z" fill="#2862FA"/>
<path d="M57.2827 274.077L58.4337 272.919L61.9168 269.436L65.3621 265.937L68.8452 262.454L72.3208 258.979L75.8039 255.496L79.2794 252.02L82.7626 248.544L86.2381 245.061L89.7213 241.586L93.1968 238.103L96.6724 234.627L100.155 231.151L103.631 227.668L107.114 224.193L110.59 220.71L114.073 217.234L117.548 213.751L121.032 210.275L124.492 206.807L124.022 206.641L123.682 206.982L120.199 210.465L116.723 213.94L113.24 217.423L109.764 220.899L106.281 224.375L102.806 227.858L99.3302 231.333L95.8546 234.816L92.379 238.292L88.8959 241.767L85.4204 245.251L81.9372 248.726L78.4617 252.209L74.9785 255.685L71.503 259.16L68.0199 262.643L62.8027 267.861L61.0612 269.602L57.5856 273.078L57.0934 273.57L57.2827 274.077Z" fill="#2862FA"/>
<path d="M58.4336 269.413L61.9168 265.937L65.3923 262.454L68.8754 258.979L72.351 255.496L75.8341 252.02L79.3097 248.545L82.7928 245.061L86.2684 241.586L89.7515 238.103L93.227 234.627L96.7026 231.144L100.186 227.661L103.661 224.185L107.144 220.702L110.62 217.227L114.103 213.744L117.579 210.268L121.062 206.792L121.887 205.96L121.387 205.816L120.229 206.974L116.753 210.457L113.27 213.933L109.795 217.416L106.311 220.892L102.836 224.367L99.3604 227.888L95.8848 231.364L92.4093 234.847L88.9261 238.322L85.4506 241.798L81.9675 245.281L78.4919 248.757L75.0088 252.24L71.5332 255.715L68.0501 259.191L64.6048 262.644L61.1217 266.119L57.6461 269.602L56.2756 270.912C56.321 271.079 56.374 271.245 56.4195 271.404L58.4336 269.413Z" fill="#2862FA"/>
<path d="M58.237 276.568L58.4339 276.372L61.917 272.888L65.3926 269.405L72.1014 262.719L72.3513 262.462L75.8344 258.986L79.31 255.503L82.7931 252.028L86.2686 248.552L89.7518 245.069L93.2273 241.593L96.7029 238.11L100.186 234.635L103.662 231.152L107.145 227.668L110.62 224.193L114.103 220.71L117.579 217.234L121.062 213.751L124.538 210.275L127.052 207.762L126.597 207.58L123.712 210.472L120.229 213.948L116.754 217.431L113.27 220.907L109.795 224.382L106.312 227.865L102.836 231.341L99.3607 234.824L95.8851 238.3L92.4095 241.775L88.9264 245.258L85.4509 248.734L81.9677 252.217L78.4922 255.692L75.0091 259.168L71.5335 262.651L68.0504 266.127L64.6051 269.602L61.122 273.078L58.0932 276.107L58.237 276.568Z" fill="#2862FA"/>
<path d="M54.9582 252.02L58.4337 248.545L61.9168 245.062L65.3621 241.586L68.8452 238.103L72.3208 234.627L75.8039 231.144L79.2795 227.661L82.7626 224.186L86.2382 220.702L89.7213 217.227L93.1968 213.744L96.6724 210.268L100.156 206.793L102.912 204.036L102.208 204.097L99.3302 206.974L95.8773 210.473L92.4018 213.948L88.9187 217.431L85.4431 220.907L81.96 224.382L78.4844 227.866L75.0013 231.341L71.5257 234.824L68.0426 238.3L64.6049 241.768L61.1218 245.251L57.6462 248.726L54.6174 251.755C54.6174 251.99 54.572 252.225 54.5569 252.459L54.9582 252.02Z" fill="#2862FA"/>
</g>
<path d="M239.254 155.03H156.378V292.265H239.254V155.03Z" fill="white" stroke="#001E6E" stroke-linecap="round" stroke-linejoin="round"/>
<path d="M311.241 178.942H248.9V292.742H311.241V178.942Z" fill="#2862FA"/>
<path d="M383.243 221.648H320.902V292.401H383.243V221.648Z" fill="white" stroke="#001E6E" stroke-linecap="round" stroke-linejoin="round"/>
<path d="M57.7446 235.785H13.63V292.485H57.7446V235.785Z" fill="white" stroke="#001E6E" stroke-linecap="round" stroke-linejoin="round"/>
<path d="M1 292.235L415.189 292.608" stroke="#2862FA" stroke-width="4.04" stroke-miterlimit="10"/>
<path d="M99.2848 130.398C99.2848 130.858 99.1485 131.307 98.893 131.69C98.6376 132.072 98.2746 132.37 97.8498 132.546C97.425 132.722 96.9576 132.768 96.5067 132.678C96.0558 132.588 95.6416 132.367 95.3165 132.042C94.9914 131.717 94.77 131.303 94.6803 130.852C94.5906 130.401 94.6366 129.933 94.8125 129.509C94.9885 129.084 95.2864 128.721 95.6687 128.465C96.051 128.21 96.5004 128.073 96.9602 128.073C97.5767 128.073 98.168 128.318 98.6039 128.754C99.0399 129.19 99.2848 129.782 99.2848 130.398Z" stroke="#001E6E" stroke-linecap="round" stroke-linejoin="round"/>
<path d="M153.765 52.5503L141.824 38.3376H153.765V52.5503Z" stroke="#2862FA" stroke-linecap="round" stroke-linejoin="round"/>
<path d="M100.534 38.33V1H153.765V29.8191V38.33V38.3376H141.824L141.817 38.33H100.534Z" stroke="#001E6E" stroke-linecap="round" stroke-linejoin="round"/>
<path d="M140.84 14.2056H110.309" stroke="#001E6E" stroke-linecap="round" stroke-linejoin="round"/>
<path d="M140.84 25.397H117.844" stroke="#001E6E" stroke-linecap="round" stroke-linejoin="round"/>
<path d="M187.665 106.395L137.19 117.382C136.64 117.499 136.067 117.433 135.558 117.196C135.048 116.958 134.63 116.561 134.366 116.064L111.37 64.8321C110.762 63.6905 109.726 62.837 108.489 62.4592C107.252 62.0815 105.916 62.2106 104.774 62.818L103.26 63.6206L127.135 123.712V123.78C127.473 124.416 128.016 124.919 128.675 125.208C129.335 125.496 130.073 125.554 130.769 125.37L192.262 109.34C192.025 108.351 191.414 107.491 190.557 106.942C189.7 106.393 188.664 106.197 187.665 106.395Z" fill="#2862FA"/>
<path d="M105.494 195.449C105.494 195.449 101.382 203.968 98.3154 205.906L89.9181 207.898C88.8364 207.977 87.7909 208.322 86.8734 208.9C85.9558 209.478 85.1942 210.273 84.6555 211.214L106.849 221.482L117.488 200.628L105.494 195.449Z" fill="#001E6E"/>
<path d="M220.46 121.44C220.46 121.44 167.584 123.394 142.824 127.18C139.288 127.728 135.931 129.103 133.027 131.194C130.122 133.285 127.753 136.032 126.112 139.212L96.9602 195.555L122.781 209.14L152.698 155L207.08 153.379L220.46 121.44Z" fill="white" stroke="#001E6E" stroke-linecap="round" stroke-linejoin="round"/>
<path d="M222.534 108.636C221.876 110.943 220.787 113.103 219.324 115.004C206.944 130.716 181.29 111.521 160.33 111.673C157.43 111.673 154.863 111.748 154.273 112.68C153.228 114.239 152.001 116.466 151.244 116.466C150.373 116.39 151.736 113.331 152.508 111.029C152.508 111.029 149.926 117.397 148.98 117.049C147.836 116.625 150.752 109.371 150.752 109.371C150.752 109.371 147.041 116.799 146.087 115.648C145.133 114.497 149.169 107.879 149.169 107.879C149.169 107.879 145.383 113.77 144.126 113.179C143.134 112.695 146.398 108.212 149.692 104.661C151.653 102.558 154.229 101.129 157.052 100.58C161.135 99.9055 165.289 99.7629 169.409 100.155C169.409 100.155 190.611 102.518 208.231 105.388L215.046 73.7519C215.432 71.8274 216.357 70.0524 217.714 68.6339C219.071 67.2155 220.803 66.212 222.709 65.7407C225.737 65.044 229.16 65.3545 231.401 68.8982C232.167 70.1561 232.649 71.5656 232.815 73.0288C232.981 74.492 232.827 75.9738 232.363 77.3713L222.534 108.636Z" fill="white" stroke="#001E6E" stroke-linecap="round" stroke-linejoin="round"/>
<path d="M155.848 208.026C155.848 208.026 161.655 218.695 161.36 222.307L157.907 230.22C157.318 231.13 156.963 232.171 156.872 233.252C156.78 234.332 156.957 235.418 157.385 236.414L178.942 224.859L168.682 203.733L155.848 208.026Z" fill="#001E6E"/>
<path d="M225.775 114.739C225.775 114.739 151.948 110.37 130.678 130.398C113.543 146.542 151.342 215.909 151.342 215.909L178.246 204.551L156.378 155.689L219.226 154.871C219.226 154.871 244.758 147.572 238.193 114.739H225.775Z" fill="white" stroke="#001E6E" stroke-linecap="round" stroke-linejoin="round"/>
<path d="M262.931 63.8477C262.931 63.8477 264.506 55.7683 255.397 52.4896C247.242 49.529 246.485 41.1316 246.485 41.1316C246.485 41.1316 243.88 34.5667 236.527 34.9831C229.175 35.3996 232.87 22.9134 220.346 20.4146C218.461 20.0436 216.727 20.8008 215.212 22.0577C210.571 25.9346 209.806 32.81 213.13 37.8681L230.175 63.825L262.931 63.8477Z" fill="#001E6E" stroke="#001E6E" stroke-linecap="round" stroke-linejoin="round"/>
<path d="M215.629 70.8216L207.587 50.7936L214.592 40.8743L231.841 66.3011L215.629 70.8216Z" fill="white" stroke="#001E6E" stroke-linecap="round" stroke-linejoin="round"/>
<path d="M210.707 57.2222L214.205 51.5962L208.996 53.0652L210.707 57.2222Z" fill="#001E6E" stroke="#001E6E" stroke-linecap="round" stroke-linejoin="round"/>
<path d="M228.161 27.0327C232.469 35.3619 225.003 47.8179 216.121 52.4066C207.239 56.9952 200.174 54.0042 196.82 45.2131C193.685 37.0202 195.389 24.7687 204.271 20.2255C213.153 15.6823 223.875 18.6732 228.161 27.0327Z" fill="white" stroke="#001E6E" stroke-linecap="round" stroke-linejoin="round"/>
<path d="M229.069 29.38C226.26 20.5359 217.325 16.2198 207.716 18.9003C200.144 20.9978 195.253 28.4032 194.73 35.8844C194.844 35.8844 200.848 35.7253 203.415 29.0695C203.415 29.0695 204.127 39.7915 215.44 37.7092L220.46 49.5291C227.146 46.3943 232.189 39.1706 229.069 29.38Z" fill="#001E6E" stroke="#001E6E" stroke-linecap="round" stroke-linejoin="round"/>
<path d="M205.619 48.1738C206.357 48.0913 207.045 47.7561 207.565 47.2248C208.086 46.6936 208.406 45.999 208.473 45.2585" fill="white"/>
<path d="M205.619 48.1738C206.357 48.0913 207.045 47.7561 207.565 47.2248C208.086 46.6936 208.406 45.999 208.473 45.2585" stroke="#001E6E" stroke-linecap="round" stroke-linejoin="round"/>
<path d="M216.659 45.7431C217.813 45.3924 218.803 44.6369 219.445 43.6154C220.846 41.4574 220.46 38.7163 218.582 37.4972C217.302 36.6719 215.97 36.9748 214.796 37.9288" fill="white"/>
<path d="M216.659 45.7431C217.813 45.3924 218.803 44.6369 219.445 43.6154C220.846 41.4574 220.46 38.7163 218.582 37.4972C217.302 36.6719 215.97 36.9748 214.796 37.9288" stroke="#001E6E" stroke-linecap="round" stroke-linejoin="round"/>
<path d="M215.22 42.9339C215.22 42.9339 215.743 40.8592 217.56 41.2302L215.22 42.9339Z" fill="white"/>
<path d="M215.22 42.9339C215.22 42.9339 215.743 40.8592 217.56 41.2302" stroke="#001E6E" stroke-linecap="round" stroke-linejoin="round"/>
<path d="M221.656 18.4232C221.719 19.5703 222.121 20.6729 222.811 21.5915C223.501 22.5101 224.448 23.2035 225.532 23.5838C226.616 23.9642 227.789 24.0145 228.902 23.7284C230.014 23.4422 231.017 22.8325 231.783 21.9764C232.549 21.1202 233.044 20.0561 233.205 18.9186C233.367 17.7811 233.187 16.6213 232.689 15.586C232.191 14.5507 231.397 13.6863 230.408 13.1023C229.418 12.5183 228.278 12.2408 227.131 12.305C225.594 12.3929 224.156 13.0862 223.129 14.233C222.103 15.3798 221.574 16.8865 221.656 18.4232Z" fill="#001E6E" stroke="#001E6E" stroke-linecap="round" stroke-linejoin="round"/>
<path d="M211.601 64.658L228.691 58.5549C228.691 58.5549 249.188 92.5684 249.892 115.186C249.892 115.186 225.753 114.739 204.967 114.512L211.601 64.658Z" fill="#2862FA"/>
<mask id="mask1_1_142" style="mask-type:luminance" maskUnits="userSpaceOnUse" x="205" y="57" width="46" height="58">
<path d="M212.078 63.9993L229.168 57.8962C229.168 57.8962 249.665 91.9097 250.369 114.527C250.369 114.527 226.23 114.081 205.445 113.853L212.078 63.9993Z" fill="white"/>
</mask>
<g mask="url(#mask1_1_142)">
<path d="M216.257 73.9717H223.14" stroke="white" stroke-linecap="round" stroke-linejoin="round"/>
<path d="M219.702 67.0887L226.116 64.4233" stroke="white" stroke-linecap="round" stroke-linejoin="round"/>
<path d="M230.5 66.4602V73.9716" stroke="white" stroke-linecap="round" stroke-linejoin="round"/>
<path d="M227.214 83.043L231.749 78.3484" stroke="white" stroke-linecap="round" stroke-linejoin="round"/>
<path d="M218.135 82.104L217.355 87.7376" stroke="white" stroke-linecap="round" stroke-linejoin="round"/>
<path d="M223.928 89.9333L230.5 91.1827" stroke="white" stroke-linecap="round" stroke-linejoin="round"/>
<path d="M235.975 90.5544L240.351 86.1777" stroke="white" stroke-linecap="round" stroke-linejoin="round"/>
<path d="M227.214 96.3469L231.749 99.9436" stroke="white" stroke-linecap="round" stroke-linejoin="round"/>
<path d="M231.749 107.561H238.632" stroke="white" stroke-linecap="round" stroke-linejoin="round"/>
<path d="M235.195 100.67L241.608 98.0127" stroke="white" stroke-linecap="round" stroke-linejoin="round"/>
<path d="M245.985 100.05V107.561" stroke="white" stroke-linecap="round" stroke-linejoin="round"/>
<path d="M242.699 116.632L247.242 111.938" stroke="white" stroke-linecap="round" stroke-linejoin="round"/>
<path d="M200.795 93.2954H207.678" stroke="white" stroke-linecap="round" stroke-linejoin="round"/>
<path d="M204.233 86.4124L210.646 83.7471" stroke="white" stroke-linecap="round" stroke-linejoin="round"/>
<path d="M211.744 102.374L216.28 97.6797" stroke="white" stroke-linecap="round" stroke-linejoin="round"/>
<path d="M208.458 109.257L215.03 110.507" stroke="white" stroke-linecap="round" stroke-linejoin="round"/>
<path d="M220.505 109.886L224.889 105.501" stroke="white" stroke-linecap="round" stroke-linejoin="round"/>
</g>
<path d="M203.173 118.147C201.822 120.129 200.108 121.837 198.122 123.182C181.464 134.214 163.109 107.932 143.157 101.496C140.401 100.61 137.947 99.8526 137.099 100.542C135.585 101.7 133.737 103.449 133.033 103.146C132.329 102.843 134.487 100.322 135.948 98.3836C135.948 98.3836 131.496 103.616 130.709 102.987C129.754 102.23 134.797 96.2558 134.797 96.2558C134.797 96.2558 128.944 102.139 128.399 100.746C127.854 99.3528 133.76 94.3477 133.76 94.3477C133.76 94.3477 128.286 98.7395 127.309 97.793C126.514 97.0358 130.996 93.7798 135.267 91.4552C137.787 90.0691 140.683 89.5202 143.536 89.8878C147.624 90.5295 151.612 91.6977 155.401 93.3633C155.401 93.3633 174.778 102.26 190.618 110.522L206.959 82.6338C207.94 80.9273 209.386 79.5359 211.13 78.6226C212.873 77.7093 214.841 77.312 216.802 77.4772C219.907 77.765 223.057 79.1355 224.072 83.2017C224.397 84.6341 224.41 86.12 224.108 87.5576C223.806 88.9952 223.197 90.3506 222.322 91.5309L203.173 118.147Z" fill="white" stroke="#001E6E" stroke-linecap="round" stroke-linejoin="round"/>
<path d="M191.217 103.018L210.192 116.435C210.192 116.435 240.48 78.3027 226.479 69.0876C213.289 60.4024 191.217 103.018 191.217 103.018Z" fill="#2862FA" stroke="#001E6E" stroke-linecap="round" stroke-linejoin="round"/>
<mask id="mask2_1_142" style="mask-type:luminance" maskUnits="userSpaceOnUse" x="191" y="68" width="40" height="50">
<path d="M191.815 103.595L210.79 117.013C210.79 117.013 241.078 78.8798 227.078 69.6647C213.887 60.9796 191.815 103.595 191.815 103.595Z" fill="white"/>
</mask>
<g mask="url(#mask2_1_142)">
<path d="M216.379 75.2075H223.262" stroke="white" stroke-linecap="round" stroke-linejoin="round"/>
<path d="M219.824 68.3245L226.237 65.6592" stroke="white" stroke-linecap="round" stroke-linejoin="round"/>
<path d="M230.621 67.696V75.2075" stroke="white" stroke-linecap="round" stroke-linejoin="round"/>
<path d="M227.335 84.2789L231.871 79.5842" stroke="white" stroke-linecap="round" stroke-linejoin="round"/>
<path d="M218.257 83.3398L217.477 88.9734" stroke="white" stroke-linecap="round" stroke-linejoin="round"/>
<path d="M224.049 91.1692L230.621 92.4186" stroke="white" stroke-linecap="round" stroke-linejoin="round"/>
<path d="M227.335 97.5828L231.871 101.179" stroke="white" stroke-linecap="round" stroke-linejoin="round"/>
<path d="M200.917 94.5312H207.799" stroke="white" stroke-linecap="round" stroke-linejoin="round"/>
<path d="M204.354 87.6483L210.768 84.9829" stroke="white" stroke-linecap="round" stroke-linejoin="round"/>
<path d="M211.866 103.61L216.401 98.9155" stroke="white" stroke-linecap="round" stroke-linejoin="round"/>
<path d="M202.794 102.671L202.007 108.305" stroke="white" stroke-linecap="round" stroke-linejoin="round"/>
<path d="M208.579 110.493L215.152 111.743" stroke="white" stroke-linecap="round" stroke-linejoin="round"/>
<path d="M220.626 111.121L225.011 106.737" stroke="white" stroke-linecap="round" stroke-linejoin="round"/>
<path d="M211.866 116.906L216.401 120.503" stroke="white" stroke-linecap="round" stroke-linejoin="round"/>
</g>
<path d="M339.068 279.567C353.576 269.966 361.844 251.725 359.512 234.491" stroke="#001E6E" stroke-linecap="round" stroke-linejoin="round"/>
<path d="M354.272 241.389L359.505 234.491L365.199 240.95" stroke="#001E6E" stroke-linecap="round" stroke-linejoin="round"/>
<circle cx="280.408" cy="140.431" r="32.5597" fill="url(#paint0_linear_1_142)"/>
<rect x="276.495" y="127.104" width="7.94358" height="9.41462" fill="#86A8FF"/>
<rect x="293.853" y="136.519" width="7.94358" height="9.41461" transform="rotate(90 293.853 136.519)" fill="#86A8FF"/>
<rect x="276.495" y="136.519" width="7.94358" height="9.41461" transform="rotate(90 276.495 136.519)" fill="#86A8FF"/>
<rect x="276.495" y="144.462" width="7.94358" height="9.41462" fill="#86A8FF"/>
<path d="M360.974 183.289C360.093 186.81 354.613 185.021 352.909 184.538L354.471 178.348C356.232 178.859 361.882 179.597 360.974 183.289ZM352.143 187.718L350.439 194.561C352.54 195.101 359.043 197.174 360.008 193.312C361.03 189.28 354.244 188.229 352.143 187.718ZM382.156 194.249C378.351 209.469 362.961 218.726 347.742 214.921C332.522 211.116 323.274 195.726 327.07 180.506C327.972 176.889 329.578 173.484 331.795 170.488C334.013 167.491 336.8 164.961 339.995 163.041C343.191 161.122 346.734 159.85 350.421 159.3C354.108 158.75 357.868 158.931 361.485 159.834C376.676 163.639 385.933 179.029 382.156 194.249ZM360.888 176.161L362.166 171.05L359.043 170.34L357.793 175.253C356.97 175.054 356.147 174.855 355.295 174.685L356.544 169.659L353.449 168.921L352.171 174.003C351.49 173.833 350.808 173.691 350.184 173.521L345.896 172.442L345.044 175.764C345.044 175.764 347.372 176.303 347.316 176.332C348.593 176.644 348.821 177.439 348.764 178.149L345.271 192.148C345.129 192.545 344.675 193.057 343.851 192.915C343.88 192.943 341.58 192.347 341.58 192.347L340.047 195.896L344.079 196.918C344.845 197.117 345.584 197.316 346.322 197.486L345.016 202.654L348.139 203.449L349.417 198.31C350.269 198.537 351.092 198.736 351.887 198.963L350.609 204.045L353.733 204.84L355.039 199.673C360.292 200.666 364.324 200.269 365.971 195.47C367.391 191.637 365.971 189.365 363.132 187.917C365.176 187.378 366.709 186.1 367.135 183.317C367.703 179.54 364.807 177.524 360.888 176.161Z" fill="#F5AC3D"/>
<path d="M35.8313 229.781C50.0498 229.781 61.5761 218.255 61.5761 204.036C61.5761 189.818 50.0498 178.291 35.8313 178.291C21.6128 178.291 10.0864 189.818 10.0864 204.036C10.0864 218.255 21.6128 229.781 35.8313 229.781Z" fill="#627EEA"/>
<path d="M36.6328 184.728V199L48.6959 204.39L36.6328 184.728Z" fill="white" fill-opacity="0.602"/>
<path d="M36.6326 184.728L24.5679 204.39L36.6326 199V184.728Z" fill="white"/>
<path d="M36.6328 213.639V223.337L48.7039 206.636L36.6328 213.639Z" fill="white" fill-opacity="0.602"/>
<path d="M36.6326 223.337V213.637L24.5679 206.636L36.6326 223.337Z" fill="white"/>
<path d="M36.6328 211.394L48.6959 204.39L36.6328 199.003V211.394Z" fill="white" fill-opacity="0.2"/>
<path d="M24.5679 204.39L36.6326 211.394V199.003L24.5679 204.39Z" fill="white" fill-opacity="0.602"/>
<defs>
<linearGradient id="paint0_linear_1_142" x1="280.408" y1="107.871" x2="280.408" y2="172.991" gradientUnits="userSpaceOnUse">
<stop stop-color="#2862FA"/>
<stop offset="1" stop-color="#144FEB"/>
</linearGradient>
</defs>
</svg>
