<svg width="326" height="163" viewBox="0 0 326 163" fill="none" xmlns="http://www.w3.org/2000/svg">
<path d="M1.42499e-05 -2.84998e-05C1.23786e-05 21.4054 4.21614 42.6013 12.4076 62.3774C20.5992 82.1534 32.6057 100.122 47.7416 115.258C62.8775 130.394 80.8465 142.401 100.623 150.592C120.399 158.784 141.595 163 163 163C184.405 163 205.601 158.784 225.377 150.592C245.153 142.401 263.122 130.394 278.258 115.258C293.394 100.122 305.401 82.1535 313.592 62.3774C321.784 42.6013 326 21.4055 326 -1.52588e-05L255.107 -2.14565e-05C255.107 12.0956 252.724 24.0728 248.095 35.2477C243.467 46.4226 236.682 56.5763 228.129 65.1292C219.576 73.6821 209.423 80.4666 198.248 85.0954C187.073 89.7242 175.096 92.1066 163 92.1066C150.904 92.1066 138.927 89.7242 127.752 85.0954C116.577 80.4666 106.424 73.6821 97.8708 65.1292C89.3179 56.5763 82.5334 46.4226 77.9046 35.2477C73.2758 24.0728 70.8934 12.0956 70.8934 -2.23021e-05L1.42499e-05 -2.84998e-05Z" fill="#4074FB"/>
</svg>
