<svg width="23" height="20" viewBox="0 0 23 20" fill="none" xmlns="http://www.w3.org/2000/svg">
<path d="M9.18 0.059997L5.68 14.27L4.84 10.21C6.19333 10.21 7.31333 10.63 8.2 11.47C9.08667 12.31 9.53 13.43 9.53 14.83C9.53 16.23 9.08667 17.3733 8.2 18.26C7.31333 19.1467 6.21667 19.59 4.91 19.59C3.55667 19.59 2.43667 19.1467 1.55 18.26C0.663334 17.3267 0.22 16.1833 0.22 14.83C0.22 14.3633 0.243334 13.92 0.29 13.5C0.383333 13.08 0.523334 12.59 0.71 12.03C0.896667 11.4233 1.15333 10.7 1.48 9.86L4.77 0.059997H9.18ZM22.41 0.059997L18.91 14.27L18.07 10.21C19.4233 10.21 20.5433 10.63 21.43 11.47C22.3167 12.31 22.76 13.43 22.76 14.83C22.76 16.23 22.3167 17.3733 21.43 18.26C20.5433 19.1467 19.4467 19.59 18.14 19.59C16.7867 19.59 15.6667 19.1467 14.78 18.26C13.8933 17.3267 13.45 16.1833 13.45 14.83C13.45 14.3633 13.4733 13.92 13.52 13.5C13.6133 13.08 13.7533 12.59 13.94 12.03C14.1267 11.4233 14.3833 10.7 14.71 9.86L18 0.059997H22.41Z" fill="#201339"/>
</svg>
