<svg width="66" height="66" viewBox="0 0 66 66" fill="none" xmlns="http://www.w3.org/2000/svg">
<circle cx="33" cy="33" r="33" fill="#F9E3FF"/>
<path d="M34.1785 39.6142V41.6042M34.1785 29.7433V31.5953M34.1785 46.451C41.0744 46.451 46 44.0079 46 38.57C46 32.6592 43.0446 28.7187 37.1339 25.7634L39.4588 22.7686C39.5769 22.5721 39.6409 22.3479 39.6445 22.1186C39.648 21.8894 39.5909 21.6633 39.4788 21.4633C39.3668 21.2633 39.2039 21.0964 39.0066 20.9796C38.8093 20.8629 38.5847 20.8003 38.3554 20.7983H30.0016C29.7723 20.8003 29.5477 20.8629 29.3504 20.9796C29.1531 21.0964 28.9902 21.2633 28.8782 21.4633C28.7662 21.6633 28.709 21.8894 28.7125 22.1186C28.7161 22.3479 28.7801 22.5721 28.8982 22.7686L31.2231 25.7831C25.3124 28.7581 22.357 32.6986 22.357 38.6094C22.357 44.0079 27.2826 46.451 34.1785 46.451Z" stroke="#E159FF" stroke-width="1.6" stroke-linecap="round" stroke-linejoin="round"/>
<path d="M32.2083 38.708C32.4487 38.9934 32.7513 39.2199 33.0928 39.3702C33.4343 39.5204 33.8057 39.5905 34.1785 39.5749C34.7483 39.6138 35.311 39.4302 35.7483 39.0628C36.1855 38.6953 36.4633 38.1727 36.5231 37.6047C36.4633 37.0367 36.1855 36.5141 35.7483 36.1466C35.311 35.7792 34.7483 35.5956 34.1785 35.6344C33.6087 35.6733 33.046 35.4897 32.6088 35.1223C32.1716 34.7548 31.8938 34.2322 31.8339 33.6642C31.889 33.0942 32.1654 32.5686 32.6038 32.2002C33.0422 31.8318 33.6076 31.65 34.1785 31.6939C34.5448 31.6715 34.9114 31.7306 35.2521 31.8669C35.5928 32.0031 35.899 32.2132 36.1488 32.482" stroke="#E159FF" stroke-width="1.6" stroke-linecap="round" stroke-linejoin="round"/>
</svg>
