<svg width="66" height="66" viewBox="0 0 66 66" fill="none" xmlns="http://www.w3.org/2000/svg">
<circle cx="33" cy="33" r="33" fill="#E6EDFF"/>
<path d="M25.9285 30.6436H30.6428" stroke="#2862FA" stroke-width="1.5" stroke-linecap="round" stroke-linejoin="round"/>
<path d="M43.4103 31.8223H40.3436C38.2399 31.8223 36.5356 33.4051 36.5356 35.358C36.5356 37.3109 38.241 38.8937 40.3424 38.8937H43.4103C43.5093 38.8937 43.5576 38.8937 43.5988 38.8913C44.2353 38.8524 44.742 38.3822 44.7833 37.7917C44.7856 37.754 44.7856 37.7081 44.7856 37.6173V33.0987C44.7856 33.0079 44.7856 32.9619 44.7833 32.9242C44.7409 32.3338 44.2353 31.8635 43.5988 31.8246C43.5576 31.8223 43.5093 31.8223 43.4103 31.8223Z" stroke="#2862FA" stroke-width="1.5"/>
<path d="M43.5658 31.8221C43.4739 29.6158 43.1793 28.2628 42.2258 27.3105C40.8457 25.9292 38.6229 25.9292 34.1785 25.9292H30.6428C26.1984 25.9292 23.9756 25.9292 22.5955 27.3105C21.2142 28.6906 21.2142 30.9134 21.2142 35.3578C21.2142 39.8022 21.2142 42.0249 22.5955 43.4051C23.9756 44.7863 26.1984 44.7863 30.6428 44.7863H34.1785C38.6229 44.7863 40.8457 44.7863 42.2258 43.4051C43.1793 42.4528 43.4751 41.0998 43.5658 38.8935" stroke="#2862FA" stroke-width="1.5"/>
<path d="M25.9285 25.9294L30.3305 23.0101C30.9496 22.6074 31.6722 22.3931 32.4107 22.3931C33.1492 22.3931 33.8718 22.6074 34.4908 23.0101L38.8928 25.9294" stroke="#2862FA" stroke-width="1.5" stroke-linecap="round"/>
<path d="M40.0607 35.3579H40.0718" stroke="#2862FA" stroke-width="2" stroke-linecap="round" stroke-linejoin="round"/>
</svg>
