<svg width="66" height="66" viewBox="0 0 66 66" fill="none" xmlns="http://www.w3.org/2000/svg">
<circle cx="33" cy="33" r="33" fill="#E9FAFF"/>
<path d="M22.3929 43.6071C21.7446 43.6071 21.1895 43.3761 20.7275 42.9141C20.2655 42.4521 20.0349 41.8974 20.0357 41.25V27.1071C20.0357 26.4589 20.2667 25.9038 20.7287 25.4418C21.1907 24.9798 21.7454 24.7492 22.3929 24.75H41.25C41.8982 24.75 42.4533 24.981 42.9153 25.443C43.3773 25.905 43.6079 26.4597 43.6071 27.1071V34.1786H22.3929V41.25H34.1786V43.6071H22.3929ZM22.3929 29.4643H41.25V27.1071H22.3929V29.4643ZM40.0714 45.9643V42.4286H36.5357V40.0714H40.0714V36.5357H42.4286V40.0714H45.9643V42.4286H42.4286V45.9643H40.0714Z" fill="#23CAFF"/>
</svg>
