<svg width="209" height="159" viewBox="0 0 209 159" fill="none" xmlns="http://www.w3.org/2000/svg">
<g filter="url(#filter0_i_1_555)">
<circle cx="77.2123" cy="77.2123" r="77.2123" transform="matrix(0.995805 -0.0915016 0.35576 0.934578 0 14.1301)" fill="#2862FA"/>
</g>
<rect width="19.8546" height="23.5314" transform="matrix(0.995805 -0.0915016 0.35576 0.934578 83.0654 49.1748)" fill="#779DFF"/>
<rect width="19.8546" height="23.5314" transform="matrix(0.355759 0.934578 -0.995805 0.0915016 134.641 67.1968)" fill="#779DFF"/>
<rect width="19.8546" height="23.5314" transform="matrix(0.355759 0.934578 -0.995805 0.0915016 91.4368 71.1665)" fill="#779DFF"/>
<rect width="19.8546" height="23.5314" transform="matrix(0.995805 -0.0915016 0.35576 0.934578 98.5003 89.7222)" fill="#779DFF"/>
<g filter="url(#filter1_i_1_555)">
<path fill-rule="evenodd" clip-rule="evenodd" d="M131.818 150.528C174.004 146.651 195.984 111.414 180.913 71.8218C165.842 32.23 119.426 3.27688 77.2406 7.15319C35.055 11.0295 13.0744 46.2674 28.1455 85.8592C43.2167 125.451 89.6325 154.404 131.818 150.528ZM124.164 130.42C154.517 127.631 170.332 102.277 159.488 73.7904C148.644 45.3036 115.248 24.4715 84.8947 27.2606C54.5417 30.0496 38.7264 55.4037 49.5702 83.8905C60.4141 112.377 93.8108 133.209 124.164 130.42Z" fill="#2862FA"/>
</g>
<defs>
<filter id="filter0_i_1_555" x="22.6873" y="6.71484" width="163.34" height="157.022" filterUnits="userSpaceOnUse" color-interpolation-filters="sRGB">
<feFlood flood-opacity="0" result="BackgroundImageFix"/>
<feBlend mode="normal" in="SourceGraphic" in2="BackgroundImageFix" result="shape"/>
<feColorMatrix in="SourceAlpha" type="matrix" values="0 0 0 0 0 0 0 0 0 0 0 0 0 0 0 0 0 0 127 0" result="hardAlpha"/>
<feOffset dy="12"/>
<feGaussianBlur stdDeviation="25"/>
<feComposite in2="hardAlpha" operator="arithmetic" k2="-1" k3="1"/>
<feColorMatrix type="matrix" values="0 0 0 0 0 0 0 0 0 0 0 0 0 0 0 0 0 0 0.25 0"/>
<feBlend mode="normal" in2="shape" result="effect1_innerShadow_1_555"/>
</filter>
<filter id="filter1_i_1_555" x="23.3952" y="6.80518" width="162.268" height="148.071" filterUnits="userSpaceOnUse" color-interpolation-filters="sRGB">
<feFlood flood-opacity="0" result="BackgroundImageFix"/>
<feBlend mode="normal" in="SourceGraphic" in2="BackgroundImageFix" result="shape"/>
<feColorMatrix in="SourceAlpha" type="matrix" values="0 0 0 0 0 0 0 0 0 0 0 0 0 0 0 0 0 0 127 0" result="hardAlpha"/>
<feOffset dy="4"/>
<feGaussianBlur stdDeviation="2"/>
<feComposite in2="hardAlpha" operator="arithmetic" k2="-1" k3="1"/>
<feColorMatrix type="matrix" values="0 0 0 0 0 0 0 0 0 0 0 0 0 0 0 0 0 0 0.25 0"/>
<feBlend mode="normal" in2="shape" result="effect1_innerShadow_1_555"/>
</filter>
</defs>
</svg>
