<svg width="109" height="133" viewBox="0 0 109 133" fill="none" xmlns="http://www.w3.org/2000/svg">
<g filter="url(#filter0_i_1_566)">
<circle cx="51.8203" cy="51.8203" r="51.8203" transform="matrix(0.95882 -0.284015 0.0826342 0.99658 0.182007 29.6443)" fill="#DDEF6D"/>
</g>
<rect width="13.3252" height="15.7929" transform="matrix(0.95882 -0.284015 0.0826342 0.99658 46.1637 46.2593)" fill="#B0BF52"/>
<rect width="13.3252" height="15.7929" transform="matrix(0.0826342 0.99658 -0.95882 0.284015 75.3876 53.728)" fill="#B0BF52"/>
<rect width="13.3252" height="15.7929" transform="matrix(0.0826342 0.99658 -0.95882 0.284015 47.4687 61.998)" fill="#B0BF52"/>
<rect width="13.3252" height="15.7929" transform="matrix(0.95882 -0.284015 0.0826342 0.99658 48.5698 75.2776)" fill="#B0BF52"/>
<g filter="url(#filter1_i_1_566)">
<path fill-rule="evenodd" clip-rule="evenodd" d="M58.5824 117.559C85.8434 109.484 106.038 79.9684 103.689 51.6338C101.339 23.2993 77.3353 6.87578 50.0744 14.9508C22.8134 23.0259 2.61868 52.5417 4.96811 80.8762C7.31755 109.211 31.3215 125.634 58.5824 117.559ZM57.3892 103.169C77.0038 97.3588 91.5342 76.1219 89.8437 55.7348C88.1533 35.3478 70.8822 23.5309 51.2676 29.341C31.653 35.1511 17.1226 56.388 18.8131 76.7751C20.5035 97.1621 37.7747 108.979 57.3892 103.169Z" fill="#DDEF6D"/>
</g>
<defs>
<filter id="filter0_i_1_566" x="4.27703" y="12.8564" width="99.7469" height="119.426" filterUnits="userSpaceOnUse" color-interpolation-filters="sRGB">
<feFlood flood-opacity="0" result="BackgroundImageFix"/>
<feBlend mode="normal" in="SourceGraphic" in2="BackgroundImageFix" result="shape"/>
<feColorMatrix in="SourceAlpha" type="matrix" values="0 0 0 0 0 0 0 0 0 0 0 0 0 0 0 0 0 0 127 0" result="hardAlpha"/>
<feOffset dy="12"/>
<feGaussianBlur stdDeviation="20"/>
<feComposite in2="hardAlpha" operator="arithmetic" k2="-1" k3="1"/>
<feColorMatrix type="matrix" values="0 0 0 0 0 0 0 0 0 0 0 0 0 0 0 0 0 0 0.25 0"/>
<feBlend mode="normal" in2="shape" result="effect1_innerShadow_1_566"/>
</filter>
<filter id="filter1_i_1_566" x="4.78223" y="12.8943" width="99.0923" height="110.721" filterUnits="userSpaceOnUse" color-interpolation-filters="sRGB">
<feFlood flood-opacity="0" result="BackgroundImageFix"/>
<feBlend mode="normal" in="SourceGraphic" in2="BackgroundImageFix" result="shape"/>
<feColorMatrix in="SourceAlpha" type="matrix" values="0 0 0 0 0 0 0 0 0 0 0 0 0 0 0 0 0 0 127 0" result="hardAlpha"/>
<feOffset dy="4"/>
<feGaussianBlur stdDeviation="2"/>
<feComposite in2="hardAlpha" operator="arithmetic" k2="-1" k3="1"/>
<feColorMatrix type="matrix" values="0 0 0 0 0 0 0 0 0 0 0 0 0 0 0 0 0 0 0.25 0"/>
<feBlend mode="normal" in2="shape" result="effect1_innerShadow_1_566"/>
</filter>
</defs>
</svg>
