<svg width="68" height="98" viewBox="0 0 68 98" fill="none" xmlns="http://www.w3.org/2000/svg">
<g filter="url(#filter0_i_1_577)">
<circle cx="35.6536" cy="35.6536" r="35.6536" transform="matrix(0.92881 0.370557 -0.0165799 0.999863 1.18225 0)" fill="#AF7DFF"/>
</g>
<rect width="9.16806" height="10.8659" transform="matrix(0.92881 0.370557 -0.0165799 0.999863 29.8599 31.9468)" fill="#DAC3FF"/>
<rect width="9.16806" height="10.8659" transform="matrix(-0.0165799 0.999863 -0.92881 -0.370558 48.2874 50.2349)" fill="#DAC3FF"/>
<rect width="9.16806" height="10.8659" transform="matrix(-0.0165799 0.999863 -0.92881 -0.370558 29.6797 42.811)" fill="#DAC3FF"/>
<rect width="9.16806" height="10.8659" transform="matrix(0.92881 0.370557 -0.0165799 0.999863 29.5276 51.9778)" fill="#DAC3FF"/>
<g filter="url(#filter1_i_1_577)">
<path fill-rule="evenodd" clip-rule="evenodd" d="M33.2548 84.1512C51.4239 91.4 66.4158 81.4205 66.7401 61.8615C67.0645 42.3025 52.5984 20.5705 34.4293 13.3218C16.2602 6.07304 1.26833 16.0525 0.943998 35.6115C0.619667 55.1705 15.0857 76.9025 33.2548 84.1512ZM33.4195 74.2179C46.4924 79.4334 57.2793 72.2531 57.5126 58.1801C57.746 44.1072 47.3375 28.4708 34.2646 23.2552C21.1917 18.0397 10.4049 25.22 10.1715 39.2929C9.93816 53.3659 20.3467 69.0023 33.4195 74.2179Z" fill="#AF7DFF"/>
</g>
<defs>
<filter id="filter0_i_1_577" x="0.585754" y="10.832" width="66.2415" height="88.0569" filterUnits="userSpaceOnUse" color-interpolation-filters="sRGB">
<feFlood flood-opacity="0" result="BackgroundImageFix"/>
<feBlend mode="normal" in="SourceGraphic" in2="BackgroundImageFix" result="shape"/>
<feColorMatrix in="SourceAlpha" type="matrix" values="0 0 0 0 0 0 0 0 0 0 0 0 0 0 0 0 0 0 127 0" result="hardAlpha"/>
<feOffset dy="12"/>
<feGaussianBlur stdDeviation="25"/>
<feComposite in2="hardAlpha" operator="arithmetic" k2="-1" k3="1"/>
<feColorMatrix type="matrix" values="0 0 0 0 0 0 0 0 0 0 0 0 0 0 0 0 0 0 0.25 0"/>
<feBlend mode="normal" in2="shape" result="effect1_innerShadow_1_577"/>
</filter>
<filter id="filter1_i_1_577" x="0.93866" y="10.9575" width="65.8068" height="79.5579" filterUnits="userSpaceOnUse" color-interpolation-filters="sRGB">
<feFlood flood-opacity="0" result="BackgroundImageFix"/>
<feBlend mode="normal" in="SourceGraphic" in2="BackgroundImageFix" result="shape"/>
<feColorMatrix in="SourceAlpha" type="matrix" values="0 0 0 0 0 0 0 0 0 0 0 0 0 0 0 0 0 0 127 0" result="hardAlpha"/>
<feOffset dy="4"/>
<feGaussianBlur stdDeviation="2"/>
<feComposite in2="hardAlpha" operator="arithmetic" k2="-1" k3="1"/>
<feColorMatrix type="matrix" values="0 0 0 0 0 0 0 0 0 0 0 0 0 0 0 0 0 0 0.25 0"/>
<feBlend mode="normal" in2="shape" result="effect1_innerShadow_1_577"/>
</filter>
</defs>
</svg>
