<svg width="57" height="57" viewBox="0 0 57 57" fill="none" xmlns="http://www.w3.org/2000/svg">
<rect width="57" height="57" rx="20" fill="#86A8FF"/>
<path d="M28.5937 16C26.1029 16 23.6681 16.7386 21.597 18.1224C19.526 19.5062 17.9118 21.4731 16.9586 23.7743C16.0055 26.0755 15.7561 28.6077 16.242 31.0507C16.7279 33.4936 17.9274 35.7376 19.6886 37.4989C21.4499 39.2601 23.6939 40.4596 26.1368 40.9455C28.5798 41.4314 31.112 41.182 33.4132 40.2288C35.7144 39.2757 37.6812 37.6615 39.0651 35.5905C40.4489 33.5194 41.1875 31.0845 41.1875 28.5937C41.1838 25.2548 39.8558 22.0537 37.4948 19.6927C35.1338 17.3317 31.9327 16.0037 28.5937 16ZM21.1471 37.4623C21.8945 36.1461 22.9774 35.0516 24.2855 34.2901C25.5936 33.5287 27.0802 33.1275 28.5937 33.1275C30.1073 33.1275 31.5939 33.5287 32.902 34.2901C34.2101 35.0516 35.293 36.1461 36.0404 37.4623C33.9561 39.2174 31.3187 40.18 28.5937 40.18C25.8688 40.18 23.2314 39.2174 21.1471 37.4623ZM36.8011 36.7633C35.5496 34.6711 33.5434 33.1385 31.1956 32.4814C32.2872 31.9009 33.1533 30.972 33.6561 29.8425C34.1589 28.713 34.2695 27.4479 33.9703 26.2482C33.6712 25.0486 32.9795 23.9835 32.0052 23.2224C31.0309 22.4612 29.8301 22.0478 28.5937 22.0478C27.3574 22.0478 26.1566 22.4612 25.1823 23.2224C24.208 23.9835 23.5163 25.0486 23.2172 26.2482C22.918 27.4479 23.0286 28.713 23.5314 29.8425C24.0342 30.972 24.9003 31.9009 25.9919 32.4814C23.6441 33.1385 21.6379 34.6711 20.3864 36.7633C18.7702 35.1413 17.6708 33.0768 17.2271 30.8304C16.7834 28.584 17.0153 26.2565 17.8934 24.1418C18.7716 22.0271 20.2566 20.22 22.1611 18.9488C24.0655 17.6775 26.304 16.999 28.5937 16.999C30.8835 16.999 33.122 17.6775 35.0264 18.9488C36.9309 20.22 38.4159 22.0271 39.2941 24.1418C40.1722 26.2565 40.4041 28.584 39.9604 30.8304C39.5167 33.0768 38.4173 35.1413 36.8011 36.7633ZM28.5937 32.12C27.6971 32.12 26.8205 31.8541 26.0749 31.3559C25.3294 30.8577 24.7483 30.1497 24.4051 29.3212C24.062 28.4928 23.9722 27.5812 24.1471 26.7018C24.3221 25.8223 24.7538 25.0145 25.3879 24.3804C26.022 23.7463 26.8298 23.3145 27.7093 23.1396C28.5887 22.9647 29.5003 23.0545 30.3287 23.3976C31.1572 23.7408 31.8652 24.3219 32.3634 25.0674C32.8616 25.813 33.1275 26.6896 33.1275 27.5862C33.1275 28.7887 32.6498 29.9418 31.7996 30.7921C30.9493 31.6423 29.7962 32.12 28.5937 32.12Z" fill="black"/>
</svg>
