<svg width="57" height="57" viewBox="0 0 57 57" fill="none" xmlns="http://www.w3.org/2000/svg">
<rect width="57" height="57" rx="20" fill="#CFB0FF"/>
<path d="M28.3422 40.8076C35.2267 40.8076 40.8076 35.2267 40.8076 28.3422C40.8076 21.4577 35.2267 15.8767 28.3422 15.8767C21.4577 15.8767 15.8767 21.4577 15.8767 28.3422C15.8767 35.2267 21.4577 40.8076 28.3422 40.8076Z" stroke="#383069" stroke-linecap="round" stroke-linejoin="round"/>
<path d="M24.5928 33.0471C24.9413 33.4869 25.3902 33.8366 25.9019 34.0669C26.4136 34.2971 26.9731 34.4012 27.5334 34.3703H29.2977C30.0776 34.3703 30.8256 34.0605 31.377 33.509C31.9285 32.9576 32.2383 32.2096 32.2383 31.4297C32.2383 30.6499 31.9285 29.9019 31.377 29.3504C30.8256 28.799 30.0776 28.4892 29.2977 28.4892H27.3864C26.6065 28.4892 25.8585 28.1794 25.3071 27.6279C24.7556 27.0764 24.4458 26.3285 24.4458 25.5486C24.4458 24.7687 24.7556 24.0208 25.3071 23.4693C25.8585 22.9178 26.6065 22.608 27.3864 22.608H29.1507C30.474 22.608 31.3561 22.9021 32.0913 23.9313M28.2685 20.9907V35.6936" stroke="#383069" stroke-linecap="round" stroke-linejoin="round"/>
</svg>
