<svg width="57" height="57" viewBox="0 0 57 57" fill="none" xmlns="http://www.w3.org/2000/svg">
<rect width="57" height="57" rx="20" fill="#CDFFBC"/>
<path d="M37.3636 21.0289C34.9694 19.7211 31.6436 19 28 19C24.3564 19 21.0306 19.7211 18.6364 21.0289C16.3241 22.2895 15 24.0461 15 25.8421V32.1579C15 33.9539 16.3241 35.7105 18.6364 36.9711C21.0306 38.2789 24.3564 39 28 39C31.6436 39 34.9694 38.2789 37.3636 36.9711C39.6759 35.7105 41 33.9539 41 32.1579V25.8421C41 24.0461 39.6759 22.2895 37.3636 21.0289ZM28 20.0526C35.4353 20.0526 40.037 23.0579 40.037 25.8421C40.037 28.6263 35.4353 31.6316 28 31.6316C20.5647 31.6316 15.963 28.6263 15.963 25.8421C15.963 23.0579 20.5647 20.0526 28 20.0526ZM27.5185 32.6842V37.9474C24.8704 37.9013 22.5906 37.4671 20.7778 36.8013V31.5855C22.7314 32.2566 25.0437 32.6342 27.5185 32.6842ZM28.4815 32.6842C30.9563 32.6408 33.2686 32.2632 35.2222 31.5921V36.8013C33.4094 37.4671 31.1356 37.9013 28.4815 37.9474V32.6842ZM15.963 32.1579V28.4632C16.5829 29.2776 17.4881 30.0276 18.6364 30.6553C19.0071 30.8579 19.4019 31.0434 19.8148 31.2184V36.4C17.346 35.2724 15.963 33.6829 15.963 32.1579ZM40.037 32.1579C40.037 33.6829 38.654 35.2724 36.1852 36.4V31.2184C36.5981 31.0434 36.9929 30.8579 37.3636 30.6553C38.5119 30.0276 39.4171 29.2776 40.037 28.4632V32.1579Z" fill="black"/>
</svg>
