<svg width="21" height="21" viewBox="0 0 21 21" fill="none" xmlns="http://www.w3.org/2000/svg">
<path d="M19.7966 0.243316C19.6838 0.13109 19.5414 0.0533901 19.386 0.0193501C19.2306 -0.0146899 19.0687 -0.00365439 18.9193 0.0511591L0.539168 6.73486C0.380654 6.79499 0.244183 6.90191 0.14788 7.04144C0.0515769 7.18096 0 7.34649 0 7.51602C0 7.68555 0.0515769 7.85107 0.14788 7.9906C0.244183 8.13013 0.380654 8.23705 0.539168 8.29718L7.71579 11.1628L13.0126 5.84927L14.1906 7.02727L8.86873 12.3492L11.7427 19.5258C11.8046 19.6812 11.9118 19.8145 12.0503 19.9084C12.1889 20.0022 12.3524 20.0523 12.5197 20.0521C12.6885 20.0487 12.8524 19.9941 12.9896 19.8957C13.1268 19.7973 13.231 19.6596 13.2883 19.5007L19.972 1.12055C20.029 0.972739 20.0427 0.81179 20.0116 0.656472C19.9806 0.501154 19.906 0.357866 19.7966 0.243316Z" fill="white"/>
</svg>
